<?xml version="1.0" standalone="no"?>
<!DOCTYPE svg PUBLIC "-//W3C//DTD SVG 1.1//EN" "http://www.w3.org/Graphics/SVG/1.1/DTD/svg11.dtd" >
<svg xmlns="http://www.w3.org/2000/svg">
<metadata></metadata>
<defs>
<font id="seabird_light_sfregular" horiz-adv-x="1146" >
<font-face units-per-em="2048" ascent="1638" descent="-410" />
<missing-glyph horiz-adv-x="593" />
<glyph unicode="&#xd;" horiz-adv-x="593" />
<glyph unicode=" "  horiz-adv-x="593" />
<glyph unicode="&#x09;" horiz-adv-x="593" />
<glyph unicode="&#xa0;" horiz-adv-x="593" />
<glyph unicode="!" horiz-adv-x="552" d="M117 0l18 53q8 25 17 41q16 29 22 43q27 63 92 64h117l-25 -68l-18 -51l-16 -45q-23 -37 -68 -37h-88h-51zM190 1397q0 53 32 64.5t59.5 13.5t60.5 2h121q-37 -83 -49 -183q-6 -51 -10.5 -106t-4.5 -113q0 -98 -12 -227q-29 -303 -29 -379q0 -47 -13 -60.5t-56 -13.5 l-37 2q16 51 16 115q0 61 -12 186t-12 187l-11 110l-28 248q-6 53 -10.5 91t-4.5 63z" />
<glyph unicode="&#x22;" horiz-adv-x="681" d="M111 995l36 480h144l-37 -480h-143zM391 995l37 480h143l-36 -480h-144z" />
<glyph unicode="#" horiz-adv-x="1198" d="M88 451l23 110h237l74 352h-236l23 111h237l91 428h110l-90 -428h205l92 428h111l-93 -428h238l-25 -111h-235l-76 -352h238l-25 -110h-235l-90 -428h-111l90 428h-207l-90 -428h-111l91 428h-236zM459 561h205l75 352h-207z" />
<glyph unicode="$" horiz-adv-x="1079" d="M53 156l4 8q49 100 76 123t125 37q-4 -10 -6 -26.5t-2 -25.5q0 -88 94 -135q76 -39 172 -39l10 553q-57 55 -133 117q-31 29 -61 57q-20 20 -56 64q-59 66 -91.5 135.5t-32.5 151.5q0 133 106.5 225t251.5 92l-4 125l78 -2l-2 -117q98 0 201.5 -26.5t172.5 -73.5l-2 -6 q-18 -43 -38.5 -70t-43 -39t-57.5 -18l-51 -15v13q0 55 -44 101t-99 46q-14 0 -46 -10q0 -90 -4 -292t-4 -212q137 -125 275 -250q66 -74 103.5 -151.5t37.5 -163.5q0 -141 -122 -242.5t-277 -101.5l2 -181h-80l2 181q-123 0 -244 49q-98 39 -211 119zM344 1206 q0 -66 53 -141q45 -63 127 -127v188q0 39 -6 129.5t-6 149.5l-39 -12q-129 -51 -129 -187zM569 614l11 -514q96 27 145 72q59 53 59 137q0 47 -15 84t-46 78q-25 33 -57 57z" />
<glyph unicode="%" horiz-adv-x="1767" d="M111 1036q0 186 57 301q74 147 227 148q150 0 223 -148q57 -117 58 -301q0 -184 -58 -301q-71 -147 -223 -147t-225 145q-59 119 -59 303zM285 1036q0 -98 8 -194.5t31 -139.5q10 -23 28.5 -39t42.5 -16q18 0 33 8q10 6 23 21q27 27 43 148.5t16 199.5q0 82 -10.5 194.5 t-30.5 153.5q-10 20 -27.5 35.5t-44.5 15.5q-33 0 -58.5 -28.5t-39.5 -152.5t-14 -206zM440 -23q197 334 408 746q178 346 375 770l116 8q-158 -268 -315 -571q-144 -275 -291 -588l-168 -360l-116 -2zM1079 434q0 188 60 303q74 143 231 144q154 0 227 -146 q59 -117 60 -303q0 -188 -58 -301q-73 -145 -229 -145q-154 0 -229 145q-61 119 -62 303zM1257 436q0 -47 5.5 -126t5.5 -95q2 -25 6 -48.5t14 -51t30.5 -46t53.5 -18.5t53.5 18.5t26.5 40t14.5 59.5t10.5 46q10 113 10 199q0 120 -12 243q0 49 -19 99q-10 29 -30.5 47 t-53.5 18t-53.5 -18.5t-27.5 -42t-13 -54t-8 -49.5q-12 -111 -13 -221z" />
<glyph unicode="&#x26;" horiz-adv-x="1404" d="M90 418q0 135 78 246q72 100 201 172l20 4l35 24q-51 88 -68 129q-25 61 -24 125q0 139 105.5 247t240.5 108q70 0 152.5 -35t138.5 -86q-18 -74 -37 -93.5t-84 -31.5l-37 -8l-8 -2l2 6q0 57 -35 87.5t-90 30.5q-72 0 -115 -55t-43 -129q0 -70 47 -151q4 -8 54 -82 l354 -529q31 63 46 129t15 117l-6 109l-2 8q0 41 53 41l293 8l-16 33l-8 -9q-10 -23 -11 -45l5 -34q-2 -8 -7 -9l-12 -6l-20 -6q-39 -10 -56 -18q-31 -16 -53 -51q-10 -16 -18.5 -37t-20.5 -62l-26 -96q-23 -74 -39 -113q-8 -20 -35 -71q55 -94 111.5 -136.5t150.5 -42.5 q-20 -66 -51 -86t-111 -20q-94 0 -125 12q-53 20 -98 101q-82 -80 -180.5 -119t-200.5 -39q-195 0 -330 133t-135 332zM309 481q0 -141 100.5 -253.5t239.5 -112.5q57 0 111.5 22.5t101.5 73.5l-387 565l-33 -26l-12 -13q-55 -47 -88 -115.5t-33 -140.5z" />
<glyph unicode="'" horiz-adv-x="401" d="M111 995l36 480h144l-37 -480h-143z" />
<glyph unicode="(" horiz-adv-x="479" d="M109 459q0 117 14 247t47 262t35 136q25 80 55.5 151.5t61 117.5t71.5 75q-82 -211 -123 -397.5t-41 -397.5q0 -150 23.5 -281.5t75.5 -281.5l47 -123q20 -45 44.5 -99t24.5 -89q0 -37 -24.5 -78t-59.5 -68q-129 176 -190 383t-61 443z" />
<glyph unicode=")" horiz-adv-x="479" d="M33 1305q0 43 24.5 86t63.5 69q125 -178 187.5 -392t62.5 -443q0 -248 -68 -512q-27 -111 -33 -129q-25 -86 -53.5 -156t-59 -116t-69.5 -68l18 47q72 186 108 354t36 346q0 176 -34 358.5t-99 337.5l-51 117l-21 39q-12 29 -12 62z" />
<glyph unicode="*" horiz-adv-x="833" d="M74 1159l63 178q119 -96 266 -194l-71 332h164q-10 -61 -21 -123q-18 -102 -41 -205q59 39 133 92q47 35 129 96l64 -174q-68 -12 -158 -26q-61 -8 -160 -21l248 -196l-141 -117q-57 123 -70 149q-18 41 -63 154q-47 -92 -72 -148q-31 -66 -65 -153l-140 117q45 35 92 69 q57 45 152 127z" />
<glyph unicode="+" horiz-adv-x="1085" d="M82 412v131l393 4l-2 405h125l4 -407l399 4l3 -131l-402 -4l2 -412l-127 -2l-2 414z" />
<glyph unicode="," horiz-adv-x="419" d="M98 150q0 20 15.5 49.5t42 38t82.5 8.5l98 -2l-14 -56q-39 -162 -74 -241q-61 -147 -150 -180q14 33 20.5 74.5t6.5 84.5q0 37 -2 57.5t-8 63.5l-13 53z" />
<glyph unicode="-" horiz-adv-x="614" d="M94 537l15 49l16 53l12 31q14 20 60 20q49 0 124.5 -5t88.5 -5q35 0 69 6q35 10 49 12q-16 -72 -34 -104q-29 -49 -80 -49q-16 0 -57.5 4t-63.5 4h-78q-47 0 -65.5 -2t-55.5 -14z" />
<glyph unicode="." horiz-adv-x="460" d="M88 -2q18 51 34.5 98t43.5 111q8 25 18 31q8 6 35 6h68l84 -2l-31 -97l-6 -20l-12 -57q-20 -68 -76 -68l-90 -2h-68z" />
<glyph unicode="/" horiz-adv-x="1056" d="M33 -31q150 244 325 568q146 268 304 581q82 156 100 193q53 104 94 194q39 0 86 7.5t80 13.5q-414 -662 -746 -1354l-92 -197z" />
<glyph unicode="0" horiz-adv-x="1083" d="M109 735q0 221 45 385q59 215 192 314q88 63 195 63q111 0 200 -67q127 -96 187 -308q47 -168 47 -377v-49v-49q-4 -23 -4 -31q0 -63 -11.5 -130.5t-31.5 -141.5q-47 -162 -137 -256q-104 -109 -250 -108q-113 0 -201 69q-127 96 -186 309q-45 164 -45 377zM338 737 l2 -82q0 -123 22 -264q31 -190 84 -248q41 -45 95 -45q41 0 71.5 22.5t49.5 61.5q45 84 65.5 253t20.5 302q0 154 -21 307q-29 221 -90 287q-20 20 -44 33.5t-52 13.5q-39 0 -70 -23.5t-51 -60.5q-45 -84 -63.5 -250.5t-18.5 -306.5z" />
<glyph unicode="1" horiz-adv-x="1085" d="M147 1237q4 51 15.5 80t30 44t45.5 23l79 25l121 31l232 53v-96v-1082l4 -82q0 -68 22.5 -94t85.5 -26q18 -2 52 -2h51h33q-20 -72 -53.5 -91.5t-121.5 -19.5h-561l51 106h23l39 3q78 0 108 14q47 23 48 92l4 88v780l-4 50v24q0 18 -1 36.5t-10 39.5q-23 53 -96 53 q-41 0 -84 -12q-55 -20 -82 -29z" />
<glyph unicode="2" horiz-adv-x="1087" d="M84 -6v18q0 109 61 211q43 74 142 172l108 109q147 152 207 244q100 154 100 311q0 127 -67.5 204.5t-192.5 77.5q-68 0 -130 -25.5t-119 -72.5l-9 62q0 47 43 77l33 27q137 98 295 98q176 0 283.5 -118.5t107.5 -303.5q0 -135 -63 -258q-53 -102 -162 -213 q-72 -72 -207 -184l-113 -94q-27 -25 -41 -39q-35 -39 -79 -107q61 0 151 -2t125 -2h55q127 0 220 10.5t169 49.5l-26 -84q-37 -100 -74 -131t-135 -31h-55q-63 0 -208 4t-153 4q-143 0 -266 -14z" />
<glyph unicode="3" horiz-adv-x="1085" d="M113 66l34 47q31 37 48 37q14 0 53 -17q68 -20 127 -20q160 0 252 114q86 106 86 275q0 164 -123 231q-92 51 -260 51l-74 -4q16 82 41 115t57 33h29q47 0 82 8q80 18 129 74.5t49 140.5q0 96 -57.5 151.5t-149.5 55.5q-61 0 -131 -23q-51 -16 -119 -51q-14 47 -14 88 q0 23 6 31t29 20q76 35 138.5 52.5t135.5 17.5q152 0 248 -76q109 -84 109 -229q0 -86 -46.5 -156.5t-125.5 -111.5l-82 -50q53 -6 61 -8q10 -2 17 -6l20 -6q123 -47 195.5 -146.5t72.5 -230.5q0 -78 -27.5 -152.5t-78.5 -140.5q-74 -96 -184.5 -148t-235.5 -52 q-82 0 -153.5 20t-157.5 66z" />
<glyph unicode="4" horiz-adv-x="1085" d="M41 545q0 127 98 329q82 170 187 302q127 166 206 223q113 82 275 82h47q-18 -53 -31.5 -136t-13.5 -141v-643h78q41 0 80 3t88 22l-13 -37l-32 -74q-25 -45 -45.5 -60.5t-67.5 -15.5l-90 4v-104q0 -102 27.5 -149.5t115.5 -47.5q-6 -20 -15 -40.5t-18.5 -33t-15.5 -16.5 q-18 -12 -51 -12h-252h-18q16 43 25 90t9 88q4 47 4 122v106h-309q-61 0 -102 3t-81 16t-62.5 42t-22.5 78zM221 645q0 -47 40 -63.5t91 -16.5h262l2 629q0 20 16.5 59t72.5 154q-197 -201 -302 -348q-122 -172 -167 -330q-4 -14 -9.5 -43t-5.5 -41z" />
<glyph unicode="5" horiz-adv-x="1085" d="M119 61l31 52q27 35 45 39q8 0 25.5 -7.5t31.5 -15.5q37 -14 69.5 -21.5t67.5 -7.5q145 0 229 133q74 117 74 269q0 106 -26 180q-37 98 -119 143q-51 29 -107 29q-41 0 -77.5 -12.5t-83.5 -36.5l-62 -29l-39 -12h-24q-17 0 -21 2l2 14l29 527q0 137 37 164.5t182 27.5 q43 0 114.5 -5t86.5 -5q72 0 134 10t126 37q-16 -117 -49 -166q-43 -63 -142 -63q-43 0 -100 6q-135 14 -168 14q-68 0 -93.5 -48t-25.5 -124l-10 -227q86 41 148.5 58.5t125.5 17.5q180 0 287 -128t107 -319q0 -236 -138 -399q-143 -172 -366 -172q-86 0 -161 17t-140 58z " />
<glyph unicode="6" horiz-adv-x="1087" d="M113 719q0 324 114 534q141 260 422 260q66 0 127.5 -14t114.5 -47q-16 -35 -41 -59.5t-49 -24.5l-27 4l-31 10q-14 4 -32.5 6.5t-57.5 2.5q-123 0 -200 -86q-68 -74 -95 -201l-51 -293q76 145 160 207q72 51 156 51q186 0 288 -172q88 -147 88 -360q0 -119 -27 -212.5 t-95 -181.5q-57 -74 -136 -115.5t-170 -41.5q-94 0 -175 45t-140 125q-137 184 -137 411zM334 608q0 -139 22 -241q33 -147 111 -217q49 -45 104 -46q119 0 172 168q37 117 37 269q0 147 -45 260q-63 155 -188 155q-121 0 -176 -129q-37 -88 -37 -219z" />
<glyph unicode="7" horiz-adv-x="1085" d="M123 1280l24 66l29 67q12 29 27 43q33 33 106 33q31 0 84 -5t66 -5q37 0 115.5 -2t119.5 -2l293 6l-633 -1428q-12 -29 -22 -43q-23 -31 -58 -30q-16 0 -34.5 6t-38.5 16l575 1303l-135 -9l-190 2q-29 0 -100.5 4.5t-78.5 4.5q-78 0 -149 -27z" />
<glyph unicode="8" horiz-adv-x="1085" d="M84 412q0 139 80 247q72 96 205 166l57 29l-74 51q-80 49 -118.5 110.5t-38.5 149.5q0 152 98 246t250 94q150 0 251 -88t101 -237q0 -88 -46 -157t-130 -126l-19 -12l-47 -41q35 -10 53.5 -19.5t24.5 -11.5q131 -63 197 -154q74 -100 73 -239q0 -203 -130.5 -326 t-331.5 -123q-197 0 -326 121t-129 320zM309 375q0 -117 62 -203q70 -96 184 -96q117 0 178 104q51 88 51 207q0 129 -64 237.5t-179 190.5q-109 -78 -170.5 -196.5t-61.5 -243.5zM377 1186q0 -86 47 -158q39 -61 121 -125q170 117 170 297q0 80 -41 137q-47 66 -129 66 q-88 0 -128 -64.5t-40 -152.5z" />
<glyph unicode="9" horiz-adv-x="1085" d="M86 948q0 221 115 381q125 174 329 174q225 0 344 -241q96 -195 97 -463q0 -213 -49 -387q-62 -218 -189 -324q-133 -111 -307 -111q-70 0 -128 14.5t-118 51.5q16 27 43 55.5t41 30.5q10 0 29.5 -7t39 -14.5t41 -9.5t50.5 -2q152 0 227 127q47 78 84 271l21 69 q4 12 -2 21q-6 8 -17 8q-12 0 -18 -14l-14 -27q-92 -139 -248 -139q-188 0 -287 172q-84 147 -84 364zM305 952q0 -209 74 -323q59 -92 162 -92q119 0 170 141q35 96 34 242q0 160 -43 288q-61 185 -188 185q-125 0 -176 -168q-33 -109 -33 -273z" />
<glyph unicode=":" horiz-adv-x="491" d="M117 0l78 178q8 20 18 27q10 6 35 6h67l84 -2l-30 -84l-7 -16l-12 -50q-20 -59 -76 -59l-90 -2zM133 891l43 108l21 56q8 18 20 30.5t74 12.5l22 2l93 -2l-37 -109l-21 -49l-14 -31q-18 -23 -66 -22z" />
<glyph unicode=";" horiz-adv-x="477" d="M117 889l45 135q18 49 38.5 62.5t63.5 13.5l127 -2q-6 -18 -16.5 -52t-26.5 -73l-16 -39l-17 -25q-10 -12 -22 -16q-6 -2 -31 -2l-86 -2h-59zM143 -233q14 35 21.5 70.5t7.5 80.5q0 35 -2 52.5t-8 62.5l-12 51l-5 41q0 20 15.5 50t43 37t81.5 7l98 -2q-41 -176 -76 -260 q-68 -157 -164 -190z" />
<glyph unicode="&#x3c;" horiz-adv-x="1038" d="M129 737l801 471v-172l-537 -299l537 -299v-172z" />
<glyph unicode="=" horiz-adv-x="1085" d="M84 227v138h920v-138h-920zM84 594v137h920v-137h-920z" />
<glyph unicode="&#x3e;" horiz-adv-x="1038" d="M109 266v172l536 299l-536 299v172l800 -471z" />
<glyph unicode="?" horiz-adv-x="686" d="M47 1315q0 74 98.5 124t192.5 50q133 0 222 -83t89 -218q0 -74 -29.5 -138t-82.5 -130q-20 -29 -62 -72q-29 -31 -41 -43q-23 -27 -49.5 -63.5t-40.5 -64.5t-19.5 -43.5t-5.5 -37.5q0 -59 39 -88q31 -23 91 -23l-15 -34q-18 -41 -30.5 -55.5t-29 -20.5t-38.5 -6h-68 l-47 4q-12 49 -12 100q0 88 27 189q14 51 51 114q14 23 67 105q39 63 62.5 123.5t23.5 128.5q0 92 -49 154.5t-141 62.5q-45 0 -100.5 -23.5t-96.5 -58.5zM162 0l14 43l35 86q20 43 35.5 57.5t52.5 14.5h127l-18 -60q-10 -27 -20.5 -54.5t-24 -48t-30 -30.5t-46.5 -10 l-37 -2z" />
<glyph unicode="@" horiz-adv-x="1540" d="M86 731l2 55q0 152 64.5 286t183.5 241q215 193 498 192q272 0 451 -177t179 -449q0 -154 -51 -287q-59 -154 -168 -236q-37 -27 -80 -42t-88 -15q-80 0 -127 45t-47 125q-18 -63 -79.5 -110.5t-131.5 -47.5q-47 0 -98 21q-86 37 -127 135q-33 80 -33 190q0 117 37 233 t107 200q45 51 103 83.5t122 32.5q63 0 115.5 -33.5t72.5 -93.5l19 111h100l-76 -434q-16 -90 -20 -121q-12 -82 -13 -125q0 -53 19.5 -86t71.5 -33q39 0 79 33q27 20 62 65q59 68 90 173.5t31 205.5q0 231 -143.5 381t-372.5 150q-270 0 -445.5 -197.5t-175.5 -472.5 q0 -270 162 -461q170 -201 436 -200q160 0 308.5 82.5t246.5 216.5l37 -88q-117 -147 -267.5 -227.5t-332.5 -80.5q-313 0 -517 220.5t-204 539.5zM555 625q0 -127 43 -183q34 -45 104 -45q76 0 125 74q27 39 60 141q12 33 24.5 83t20.5 95.5t14 83t6 70.5q0 70 -34.5 120 t-104.5 50q-127 0 -201 -188q-57 -147 -57 -301z" />
<glyph unicode="A" horiz-adv-x="1175" d="M29 0q25 72 47 161t43 173q47 199 98 375q23 78 115 370l39 117q10 33 20 72t8 45q0 27 -17 40t-44 17l4 14q10 39 23.5 58.5t29.5 25.5l43 9h70h117l55 4q35 -80 86 -232q43 -125 78 -235q66 -209 96 -320q47 -168 80 -323l33 -156q23 -102 108 -115q-8 -33 -10 -37 q-6 -20 -15.5 -33.5t-17.5 -17.5q-18 -12 -59 -12h-166l-100 2q30 83 30 155q0 33 -3 67q-3 32 -11 69l-29 141h-520l-35 -129q-16 -66 -16 -115q0 -80 65 -92l-14 -47q-8 -25 -18 -35q-10 -8 -33 -12t-72 -4h-108zM295 573h446l-94 332l-125 422q-115 -377 -227 -754z" />
<glyph unicode="B" horiz-adv-x="1200" d="M70 1364q33 66 54 83t95 28l94 12q78 8 112 10t75 2q176 0 280 -43q137 -57 187 -196q14 -43 14 -97q0 -92 -57.5 -161.5t-141.5 -69.5h-94l162 -103q111 -78 175.5 -182t64.5 -231l-7 -92q-39 -184 -154.5 -268.5t-307.5 -84.5q-63 0 -146 11q-188 24 -242 24h-4l-92 -6 q29 74 38 147.5t9 174.5v880l-2 70q-4 35 -16 53q-24 39 -96 39zM397 1030q51 -25 108.5 -45t94.5 -20q74 0 117 57t43 131q0 98 -58 170q-63 80 -159 80q-88 0 -121 -74q-25 -53 -25 -153v-146zM399 367q0 -131 25 -195q39 -100 147 -100q131 0 207 106q68 94 68 230 q0 188 -131 327q-111 117 -316 201v-569z" />
<glyph unicode="C" horiz-adv-x="1077" d="M119 698q0 117 20 220q41 262 170 415q147 176 385 176q80 0 169 -22.5t159 -61.5l-31 -63q-12 -31 -26.5 -45t-41 -27.5t-77.5 -29.5l-17 -5l5 25q0 59 -43 89t-97 30q-172 0 -256 -246q-61 -178 -61 -391q0 -240 63 -414q94 -256 299 -256q51 0 118 18.5t120 47.5v-15 q0 -70 -18.5 -91t-88.5 -48q-41 -16 -92 -24.5t-100 -8.5q-270 0 -424 228q-135 201 -135 499z" />
<glyph unicode="D" horiz-adv-x="1343" d="M78 1370q39 68 77 86.5t126 26.5l67 6q39 0 79 2t81 4q342 0 529.5 -173t187.5 -519q0 -43 -3 -94.5t-12 -112.5q-45 -299 -190 -453q-158 -166 -442 -166q-57 0 -146.5 7.5t-128.5 11.5t-55 4q-66 6 -84 6q18 70 27.5 152t9.5 170v864q0 88 -19 123q-24 45 -104 55z M420 256q4 -45 19.5 -84t50 -62.5t94.5 -23.5q41 0 69.5 7t67.5 28q137 63 199 233q39 106 55 303l2 91l-6 122q-16 193 -62 299q-68 162 -221 207q-20 6 -47 12.5t-61 6.5q-94 0 -134 -84q-26 -57 -26 -162v-8v-801v-84z" />
<glyph unicode="E" horiz-adv-x="1122" d="M92 1366q20 68 46 88.5t100 20.5h792q-25 -86 -45 -110t-98 -58l-53 -27v10q0 37 -37 51.5t-80 14.5h-164q-57 0 -79.5 -5t-38 -28t-15.5 -55l-2 -70v-303l364 2l66 6q-12 -43 -23 -65q-18 -41 -37 -54l-34 -8h-70l-266 2v-538q0 -47 35.5 -77t78.5 -30h392 q47 0 61.5 2.5t63.5 14.5l-9 -29q-8 -39 -10 -45q-8 -25 -19.5 -42.5t-25.5 -26.5t-41 -9l-782 2q20 53 27.5 114.5t7.5 131.5l2 999q0 53 -29 84t-78 37z" />
<glyph unicode="F" horiz-adv-x="1036" d="M94 1362l25 59q12 25 22 33q23 20 101 21h811q-37 -111 -66 -136q-18 -16 -63 -36l-76 -27v8q0 31 -17.5 46.5t-44.5 21.5h-38h-35h-183q-76 0 -98 -45q-2 -6 -6 -23q-2 -10 -4 -24v-56v-309h389q35 0 66 8q-12 -39 -17 -47q-12 -27 -26 -47q-27 -41 -80 -41h-56h-276 v-555q0 -51 27.5 -81t72.5 -34q-20 -51 -31.5 -70.5t-23.5 -23.5l-43 -8l-82 2l-174 2q14 45 22.5 107.5t8.5 109.5v948l-2 41q0 80 -15.5 108t-87.5 48z" />
<glyph unicode="G" horiz-adv-x="1249" d="M121 696q0 100 11 182.5t38 170.5q63 211 199 329q145 127 348 127q96 0 180 -26.5t180 -83.5l-4 -4q-63 -104 -90 -121q-14 -10 -51 -17l-62 -8q6 16 4 39q0 57 -45 85t-96 28q-199 0 -293 -269q-67 -187 -67 -414v-7q0 -211 65 -379q92 -240 279 -240q57 0 88 39 q39 49 39 160l6 112l-2 80q0 68 -43 94q-29 18 -98 25l-29 -2q8 18 18.5 37.5t24.5 36.5q24 28 60 28h3l263 -4l67 4q-29 -72 -38 -149.5t-9 -179.5v-63t2 -64q0 -176 -80 -232q-66 -45 -260 -45q-307 0 -465 209q-143 190 -143 522z" />
<glyph unicode="H" horiz-adv-x="1353" d="M92 1366q14 45 40 77t56 32l269 -2q-20 -59 -27.5 -116t-7.5 -132v-387h508v342l-2 73q0 39 -8 64q-23 53 -93 61l25 52l20 30q12 10 35 12.5t54 2.5l233 -2q-23 -66 -31 -132.5t-8 -144.5v-926q0 -80 12 -108q23 -54 95 -60q-16 -45 -29.5 -65.5t-30 -27.5t-43.5 -7 l-72 -2h-190q25 68 30 119t5 153v443h-508v-453q0 -66 16 -100q25 -53 86 -60l-6 -24q-4 -18 -16 -41q-20 -39 -55 -39h-277q18 59 23.5 122.5t5.5 147.5v971q0 53 -30 87t-79 40z" />
<glyph unicode="I" horiz-adv-x="618" d="M96 1366q31 72 58.5 90.5t113.5 18.5h191q-18 -55 -27.5 -131t-9.5 -146v-940q0 -68 21.5 -113t82.5 -51q-16 -59 -45.5 -76.5t-103.5 -17.5h-217q20 61 30.5 142t10.5 151v889l-4 67q-2 16 -2 23q-2 20 -9 39q-23 55 -90 55z" />
<glyph unicode="J" horiz-adv-x="831" d="M0 16q12 29 18.5 47.5t18.5 36.5q23 41 49 41q20 0 37.5 -4l35 -8t36 -7t36.5 -3q63 0 101.5 25.5t56.5 76.5q12 35 15.5 81t3.5 112v774l-2 33l-5 49l-8 47q-21 37 -80 43q31 78 62 96.5t125 18.5h137h29q-20 -49 -27.5 -106.5t-7.5 -125.5v-35v-817q0 -129 -10 -178 q-18 -88 -78 -147q-45 -45 -102.5 -62.5t-131.5 -17.5h-30q-18 0 -40 1t-51 7l-77 14l-80 12z" />
<glyph unicode="K" horiz-adv-x="1320" d="M90 1374q16 63 43 83t96 20l68 -7l160 5q-20 -57 -28.5 -117t-8.5 -123v-412l440 525q18 25 38 48t50 46q28 24 56 32q22 6 41 5h10l110 -6l49 6q-4 -14 -6 -27q-8 -27 -18 -51q-18 -39 -70.5 -44t-88.5 -16.5t-70 -54.5l-277 -321l471 -732l21 -24q39 -53 55 -68 q33 -31 78 -41q-10 -25 -16.5 -41t-16.5 -30q-18 -29 -47 -29h-242l6 31q0 35 -20 78q-10 23 -39 63l-404 608l-110 -133v-354q0 -117 28.5 -158t88.5 -41q-14 -43 -23 -57q-23 -39 -70 -39h-286q18 49 29.5 119.5t11.5 128.5v999q0 53 -30 87t-79 42z" />
<glyph unicode="L" horiz-adv-x="1046" d="M86 1366q18 66 51 86.5t109 20.5l213 2q-20 -55 -30.5 -129t-10.5 -140v-872v-80q0 -55 43 -88q35 -27 76 -33t65.5 -6h50.5l82 4h33q90 0 148.5 5t117.5 28q-14 -70 -38.5 -102.5t-66.5 -49t-98 -16.5q-29 0 -57.5 1t-58.5 1h-19h-530q18 59 25.5 119.5t7.5 134.5v926 q0 78 -21 125q-29 63 -92 63z" />
<glyph unicode="M" horiz-adv-x="1609" d="M90 0q18 59 35 152q25 176 35 260l43 282l67 467l13 113q0 59 -50 84l-57 18l2 6q25 92 94 93l80 2l228 2l-5 -33q0 -16 4.5 -39t8.5 -39q61 -199 96 -309q51 -160 127 -385q0 84 8 135q2 16 15 57l28 90l68 191q23 68 35 100q20 53 45 101q14 27 29.5 51t29.5 39 q33 37 86 37l162 -2q-16 -37 -17 -72q0 -39 2.5 -54.5t18.5 -117.5l33 -158l49 -289l37 -290q0 -66 4 -111t24 -191q8 -47 35 -69.5t66 -22.5q-12 -45 -22.5 -63.5t-26 -26.5t-45.5 -8l-89 -2h-67l-123 2q25 49 35 110.5t10 118.5q0 115 -18 265q-6 51 -39 264 q-20 137 -39 274q-10 102 -10 111q-6 49 -25 176q-82 -244 -115 -344q-55 -166 -100 -281q-59 -156 -78 -194q-57 -119 -119 -170q-6 61 -21 121.5t-40 136.5l-96 303q-20 57 -41 120.5t-31 111.5t-18.5 84t-28.5 110q-6 18 -23 18q-23 0 -18 -24l6 -82q0 -68 -10 -144.5 t-21 -148.5l-41 -248l-36 -303q-4 -41 -8.5 -79t-4.5 -73q0 -53 15.5 -78.5t62.5 -45.5l18 -9l-16 29l-8 -16l-16 -47q-10 -25 -21 -35q-16 -31 -55 -31h-156z" />
<glyph unicode="N" horiz-adv-x="1366" d="M94 1378q27 70 46.5 83.5t95.5 13.5l161 -2l-2 -13q0 -23 13 -49q4 -10 24 -45l631 -1092v897v35q0 37 -3 60.5t-11 48.5q-27 61 -99 69q25 63 46.5 78t90.5 15h113q-31 -102 -31 -224v-946q0 -115 31 -160q25 -37 80 -45q-29 -72 -68 -90q-27 -12 -120 -12h-115l-41 92 q-12 29 -19.5 42t-44.5 79l-489 825l-31 47q-8 16 -24 54q-29 68 -45 110q0 -88 5 -131t13 -86v-782q0 -66 24.5 -105t84.5 -45l-4 -12q-25 -63 -48.5 -76.5t-97.5 -13.5l-92 2q20 57 25.5 116.5t5.5 147.5v942q0 104 -26 138t-79 34z" />
<glyph unicode="O" horiz-adv-x="1351" d="M123 737q0 311 125 518q147 244 424 244q137 0 252 -67q160 -94 237 -289q68 -168 68 -383q0 -319 -125 -529q-147 -247 -434 -247q-133 0 -248 65q-156 94 -234 297q-65 169 -65 384v7zM373 735q0 -227 49 -391q76 -252 252 -252q178 0 254 260q49 168 49 406 q0 225 -51 387q-78 244 -252 244q-59 0 -107.5 -29t-87.5 -80q-61 -84 -88 -264q-18 -127 -18 -281z" />
<glyph unicode="P" horiz-adv-x="1069" d="M88 1376q29 74 69 94.5t130 20.5q39 0 126 4t93 4q223 0 344 -76q139 -88 176 -297q4 -20 6 -46.5t2 -53.5q0 -190 -113.5 -330.5t-291.5 -140.5q-55 0 -103.5 14.5t-109.5 53.5v-349q0 -80 22.5 -117.5t91.5 -43.5q-10 -23 -20 -45.5t-22.5 -37t-16.5 -18.5 q-16 -12 -47 -12h-43l-45 -2l-166 2q27 92 27 199v958v35q0 33 -2 57.5t-11.5 55t-32 51t-63.5 20.5zM414 864q0 -23 1 -43t7 -43q14 -51 52 -82.5t93 -31.5q119 0 187 124q53 100 53 226q0 135 -45 239q-64 146 -191 146q-109 0 -143 -111q-12 -37 -12 -92l-2 -92v-186v-54 z" />
<glyph unicode="Q" horiz-adv-x="1359" d="M100 -8l4 10q25 53 46 80q37 49 71 49q25 0 60.5 -14.5t60.5 -32.5q6 -4 16 -2q16 4 17 18q0 10 -8 17q-129 104 -189 276q-51 150 -51 344q0 90 10 175t35 165q57 190 182 301q135 121 320 121q242 0 389 -184q131 -166 160 -430q8 -72 8 -158q0 -199 -55 -356 q-66 -188 -203 -287q-45 -31 -99.5 -52.5t-103.5 -21.5q-18 0 -18 -20t22 -21q45 -6 103 -28l106 -37q41 -12 91 -22.5t95 -10.5q96 0 183 25l16 6q-29 -90 -88.5 -141.5t-149.5 -51.5q-141 0 -319 101q-150 86 -297 172q-59 27 -107.5 40t-101.5 13q-45 0 -98 -11.5 t-107 -31.5zM369 758q0 -244 47 -406q76 -258 258 -258t260 250q49 160 49 399q0 236 -51 398q-78 248 -260 248q-174 0 -252 -246q-51 -162 -51 -385z" />
<glyph unicode="R" horiz-adv-x="1171" d="M92 1372l10 21q27 47 47.5 60t71.5 25.5t118 16.5t126 4q242 0 379 -86q166 -104 166 -328q0 -119 -64.5 -214t-183.5 -146l268 -520q23 -41 43 -64q31 -33 70 -43q-37 -74 -63.5 -87t-127.5 -13h-118l6 37q0 31 -6.5 56.5t-32.5 80.5l-228 479q-27 -8 -69.5 -16 t-89.5 -17l2 -321q0 -84 18 -129q29 -70 103 -70q-25 -70 -51.5 -85t-106.5 -15l-213 2q16 53 22.5 105.5t6.5 117.5v1047q0 51 -30 76.5t-73 25.5zM414 729q170 0 264 111q88 102 88 264q0 88 -31 156q-36 79 -112 114q-27 12 -45.5 17.5t-40.5 5.5q-63 0 -93 -45t-30 -109 v-514z" />
<glyph unicode="S" horiz-adv-x="1052" d="M51 121l2 8l37 98q18 49 43 62.5t84 19.5l37 6q-10 -35 -10 -59q0 -86 82 -129q66 -35 145 -35q102 0 172 43q88 55 88 164q0 59 -35 119q-27 45 -80 96l-57 53l-141 129q-53 47 -108.5 97.5t-98.5 103.5q-51 61 -78 120.5t-27 127.5q0 166 144 266q129 90 305 90 q154 0 305 -65l37 -17l-27 -51q-18 -39 -30.5 -56.5t-24.5 -25.5q-20 -8 -43 -10l-45 -8q0 72 -72 108q-53 27 -120 27q-90 0 -150.5 -51.5t-60.5 -145.5q0 -57 32 -110q23 -37 76 -90l51 -48l199 -186l98 -90q86 -80 125 -143q53 -86 53 -185q0 -111 -62 -196.5 t-167 -134.5q-51 -23 -113.5 -34.5t-128.5 -11.5q-113 0 -227.5 37t-208.5 107z" />
<glyph unicode="T" horiz-adv-x="1114" d="M18 1313q37 113 77 137.5t167 24.5l158 -2l319 2q27 0 96.5 -2.5t73.5 -2.5q82 0 129 5.5t97 23.5q6 -12 6 -18t-29 -22.5t-44 -60.5t-36.5 -53.5t-77.5 -9.5q-31 0 -92 2t-92 2q-78 0 -98.5 -11t-20.5 -81l2 -968q0 -86 21.5 -125t99.5 -54q-18 -68 -61 -88 q-31 -14 -113 -14h-209q25 47 32 106.5t7 131.5l2 1036q0 41 -30.5 53t-77.5 12h-154q-84 -4 -152 -24z" />
<glyph unicode="U" horiz-adv-x="1366" d="M104 1370q35 78 56.5 91.5t103.5 13.5h176l56 -2q-53 -131 -73 -281t-20 -332l-2 -106v-44.5t5 -47.5l8 -168q6 -45 10 -68q12 -61 31 -115q35 -98 90 -149q68 -63 172 -64q211 0 293 287q51 178 51 463q0 43 -1 93t-1 110v34q0 78 -13.5 140.5t-39.5 95.5q-18 23 -41 33 t-60 18q12 43 27.5 64.5t31 29t44.5 7.5l67 2h125h12q-30 -93 -30 -179v-6l6 -364q0 -236 -27 -402q-39 -246 -135 -387q-117 -174 -315 -174q-78 0 -152 25q-219 61 -309 293q-68 172 -68 460q0 29 4 64t9 67q0 41 2 125t2 125v15v104q0 113 -95 129z" />
<glyph unicode="V" horiz-adv-x="1097" d="M0 1368q18 45 30.5 65.5t27 28.5t38.5 8l74 3l176 2l-10 -35q-14 -37 -14 -72q0 -55 18 -143l33 -140l47 -227q16 -66 33.5 -131t35.5 -129l35 -137q8 -31 23.5 -72t42.5 -100q43 96 81 209.5t56 169.5q45 137 84 286q55 209 55 293q0 68 -42 93.5t-109 25.5l2 6 q12 45 23.5 64.5t29.5 27.5l43 9h74l198 2q-29 -80 -36 -103q-18 -55 -31 -104q-49 -199 -62 -244q-29 -111 -68.5 -244t-58.5 -198q-31 -100 -65 -199l-86 -229q-10 -31 -15.5 -48.5t-17.5 -42t-26.5 -41t-32.5 -22.5l-60 -18q-8 -2 -35.5 -7.5t-48.5 -9.5l-41 135l-45 140 q-51 172 -80 276q-35 125 -67 279l-62 282q-20 86 -38 174q-8 57 -31 84t-78 33z" />
<glyph unicode="W" horiz-adv-x="1630" d="M-6 1372q12 53 32.5 78t65.5 25h217h23q-16 -41 -17 -97q0 -72 15 -155q4 -29 32 -156q29 -154 64 -286t49 -189l70 -270l41 -123q14 78 24.5 117.5t22.5 78.5l145 447l-37 196l-30 136q-8 37 -12.5 61.5t-14.5 52t-27 45.5q-23 25 -55 33q18 55 25 66q18 29 45.5 35 t44 6h26.5h35h146q-8 -29 -12.5 -55.5t-4.5 -61.5q0 -39 7.5 -98.5t19.5 -127t16 -86.5q23 -94 31 -131q47 -231 100 -428q23 -78 43 -159q29 -123 35 -150q18 61 25.5 94t9.5 41l92 310q18 68 37.5 142.5t36 147t29 149.5t12.5 136q0 100 -51 141q-41 33 -131 33 q18 43 35.5 64.5t35 27.5t53.5 11h80l133 2l41 -2q-16 -39 -33.5 -103.5t-19.5 -77.5l-41 -217q-35 -176 -80 -352t-102 -367l-49 -151q-27 -82 -41 -115q-33 -74 -72 -96q-23 -12 -52.5 -17.5t-74.5 -9.5l-10 -2q0 23 -8 46.5t-17 45.5l-198 682q0 -137 -2 -180t-9 -59 l-137 -387q-29 -78 -55.5 -98.5t-114.5 -37.5l-49 -12v12q-4 10 -27.5 88t-46.5 160q-49 174 -92 336q-53 203 -82 340q-18 92 -35.5 178t-46.5 189q-12 47 -37.5 70.5t-70.5 33.5z" />
<glyph unicode="X" horiz-adv-x="1175" d="M12 0l39 51l64 92l32 43l330 633l-178 383q-35 74 -61 107q-41 47 -101 53q14 51 40 83t63 32h16l197 -4l2 -13q0 -27 3 -57.5t21 -67.5l197 -407l112 205q29 53 57.5 111.5t28.5 68.5q0 25 -15 38t-36 19l-30 4q31 70 59.5 85.5t110.5 15.5h147q-37 -47 -78 -117 q-27 -45 -67 -123l-226 -440l252 -510q35 -72 60 -105q43 -55 100 -74q-14 -57 -31 -77q-23 -29 -69 -29l-150 -2h-57l6 29q0 29 -9.5 56.5t-27.5 61.5l-276 549l-215 -411q-14 -29 -30 -61t-16 -56q0 -29 17.5 -44.5t44.5 -21.5l-27 -53q-14 -25 -28.5 -34t-47 -11 t-94.5 -2h-129z" />
<glyph unicode="Y" horiz-adv-x="1142" d="M2 1374l29 62q20 37 59 37l76 2h135q4 -31 14 -60q4 -10 27 -55l252 -518q10 -20 18.5 -39t32.5 -80l217 487q10 23 14.5 38.5t4.5 33.5q0 43 -28 63.5t-67 24.5q23 72 45.5 88.5t98.5 16.5l178 -2q-25 -45 -37 -68q-23 -41 -35 -70l-338 -770v-276q0 -90 15 -125 q25 -59 98 -60l-18 -53l-17 -33q-8 -8 -25.5 -14t-48.5 -6h-200l-56 2q14 47 22.5 114.5t8.5 116.5v344l-235 494l-37 68q-20 37 -40 74.5t-45.5 72.5t-49.5 55q-31 27 -68 35z" />
<glyph unicode="Z" horiz-adv-x="1060" d="M18 -6q72 168 197 422l125 250q80 164 160 329q70 139 180 351l-174 6h-158q-55 0 -109.5 -1.5t-107.5 -11.5l29 60q16 31 28.5 45t31 21.5t44.5 7.5l58 2l61 4q80 0 244 -7.5t223 -7.5q70 0 135 15q-51 -121 -127 -279q-57 -119 -135 -274q-70 -137 -139 -275 q-20 -41 -121 -248q-66 -135 -135 -270l280 -8h99q98 0 159.5 5t137.5 26q-33 -104 -83.5 -133t-181.5 -29q-80 0 -264 4t-196 4h-144z" />
<glyph unicode="[" horiz-adv-x="604" d="M197 -410v1891h372v-101h-243q18 -70 25 -128t7 -124v-1155q0 -66 -8 -128t-26 -154h241v-101h-368z" />
<glyph unicode="\" horiz-adv-x="618" d="M113 1475h143l250 -1475h-144z" />
<glyph unicode="]" horiz-adv-x="604" d="M35 -313l246 -2q-35 131 -35 258v1144q0 119 35 289l-242 -2v105h369v-1893h-373v101z" />
<glyph unicode="^" horiz-adv-x="1144" d="M123 340l450 840l449 -840h-162l-287 561l-288 -561h-162z" />
<glyph unicode="_" horiz-adv-x="913" d="M109 0h696v-66h-696v66z" />
<glyph unicode="`" horiz-adv-x="493" d="M18 1581h201l164 -303h-100z" />
<glyph unicode="a" horiz-adv-x="1071" d="M94 389q0 180 99.5 303t265.5 123q74 0 131 -37q72 -45 145 -155q-10 49 -18 98t-8 74v75q0 133 -105 185q-72 35 -209 35q-49 0 -85 -2.5t-77 -10.5l-8 -4l21 62q12 33 24.5 44t43 18t102.5 7l41 -2h43q215 0 301 -104.5t86 -337.5v-510v-55q0 -31 8 -54q23 -53 98 -53 h19l-21 25l-6 -23q-20 -55 -40.5 -73.5t-67.5 -18.5l-86 2q-31 0 -84 -14l4 37l26 120q-86 -88 -156.5 -123.5t-148.5 -35.5q-158 0 -252 120q-86 111 -86 285zM291 399q0 -115 45 -192q59 -102 170 -103q104 0 166 97q25 41 33 88t8 112q0 119 -39 189q-51 92 -166 92 q-109 0 -168 -92q-49 -78 -49 -191z" />
<glyph unicode="b" horiz-adv-x="1193" d="M80 1497q6 18 14 35.5t25.5 40t52.5 22.5h231q-23 -70 -30.5 -147.5t-7.5 -159.5v-246l61 50q53 47 110.5 67.5t131.5 20.5q88 0 166 -41q129 -68 194 -224q57 -135 57 -307q0 -137 -24 -246q-31 -133 -94 -223q-55 -80 -135 -124t-173 -44q-84 0 -155.5 38t-132.5 124 l-25 -51q-10 -29 -23.5 -47.5t-29.5 -26.5l-43 -8l-62 -2h-43q41 158 41 315v1065q0 59 -26.5 86t-79.5 33zM358 567q0 -127 17 -209q27 -129 94 -192q33 -33 73 -51.5t85 -18.5q141 0 207 189q45 131 45 311q0 166 -45 283q-68 174 -218 174q-63 0 -114 -34t-86 -97.5 t-46.5 -150.5t-11.5 -204z" />
<glyph unicode="c" horiz-adv-x="944" d="M109 565q0 258 114 432q131 199 363 199q57 0 94 -8t65 -19q47 -18 89.5 -43.5t58.5 -33.5l10 -9l-41 -79l-22 -39q-33 -47 -92 -47q-23 0 -35 4l2 22q0 59 -39 98t-96 39q-139 0 -209 -172q-51 -127 -52 -293q0 -193 46 -319q72 -199 237 -199q39 0 66.5 8.5t64.5 26.5 l43 23q16 8 31 8q18 0 35.5 -11.5t36.5 -33.5q-59 -72 -146.5 -114t-175.5 -42q-213 0 -338 193q-111 170 -110 409z" />
<glyph unicode="d" horiz-adv-x="1193" d="M109 590q0 100 13 180t50 154q55 115 152.5 186.5t216.5 71.5q76 0 146.5 -34t146.5 -112v326q0 57 -19.5 88t-77.5 43l-12 2l14 37q12 27 21 37q19 26 60 26h3h183l41 -2l-9 -30q-28 -134 -28 -257v-8v-983q0 -96 7 -167.5t32 -147.5l-68 -2q-76 0 -100.5 12.5 t-38.5 71.5l-13 55q-133 -162 -292 -162q-127 0 -227.5 83t-151.5 214q-27 70 -38 149t-11 169zM311 571q0 -172 45 -290q68 -178 219 -179q29 0 62 10.5t57 26.5q88 63 121 207q20 92 21 240q0 180 -43 297q-64 174 -211 174q-154 0 -224 -185q-47 -125 -47 -301z" />
<glyph unicode="e" horiz-adv-x="1040" d="M229 1008q132 192 361 192h2q104 0 182 -61q63 -49 133 -160q18 -27 23 -33q12 -14 28 -28l-16 -64q-25 -100 -47 -135q-29 -45 -109 -84l-116 -60l-336 -157q47 -141 129 -223q96 -94 223 -95q41 0 74 7.5t58.5 16.5t46 17.5t26.5 8.5q20 0 41 -33l18 -47 q-166 -94 -344 -95q-238 0 -373 181q-124 167 -124 422q0 256 120 430zM309 604.5q0 -18.5 6 -63.5l254 114l25 15q47 31 57 37q31 20 54 47q55 59 55 137q0 74 -51 127t-125 53l-23 -4q-131 -18 -199 -164q-53 -115 -53 -260v-38.5z" />
<glyph unicode="f" horiz-adv-x="593" d="M43 1014q16 47 33 94q20 47 117 63q0 227 22 299q49 158 225 158q31 0 90.5 -10t87.5 -10q45 0 87 20q4 -6 4 -12q0 -20 -45 -41q-98 -45 -175 -45q-68 0 -94 -84q-18 -57 -18 -170v-57.5t2 -49.5q25 -4 47.5 -6t48.5 -2q80 0 158 25q-29 -109 -60.5 -135.5t-142.5 -26.5 q-16 0 -49 8v-778q0 -66 21.5 -106t78.5 -50q-14 -37 -28 -71q-18 -27 -68 -27h-231q18 55 27 130t9 144v752l-45 4q-49 0 -102 -16z" />
<glyph unicode="g" horiz-adv-x="1214" d="M121 584q0 260 115 428q130 192 364 192h2q78 0 135.5 -27.5t136.5 -97.5l29 43q31 41 58 47l32 9h49h45q-33 -55 -44 -123t-11 -144v-856q0 -225 -112.5 -356t-327.5 -131q-104 0 -208.5 27.5t-221.5 78.5q16 37 35 62q27 33 51 33q25 0 55 -13l59 -18q80 -27 133.5 -37 t88.5 -10q55 0 99 17.5t86 61.5t58.5 101t16.5 131v64v69q-78 -70 -149.5 -97.5t-151.5 -27.5q-207 0 -322 183q-100 160 -100 391zM332 608q0 -180 43 -293q66 -174 225 -174q63 0 127 30t119 79v481q0 199 -70 283q-56 69 -165 69h-3q-164 0 -231 -174q-45 -115 -45 -301z " />
<glyph unicode="h" horiz-adv-x="1148" d="M76 1497q6 16 13 30.5t22 35.5q29 39 69 39h217q-20 -59 -26 -108.5t-6 -117.5v-329q27 33 36 43q8 8 13 10l12 12q61 47 117.5 68.5t128.5 21.5q152 0 225 -125q63 -109 64 -282v-523q0 -78 24.5 -118.5t91.5 -51.5q-23 -66 -46 -85t-89 -19l-186 4q12 41 20 84t8 80 v610q0 121 -34 193q-51 106 -166 106q-72 0 -127.5 -47t-73.5 -117q-10 -31 -12 -65.5t-2 -77.5v-49v-406q0 -45 3 -78.5t13 -62.5t33.5 -48.5t60.5 -25.5q-23 -72 -39 -86t-86 -14l-192 2q14 55 19 116.5t5 137.5v1038l-2 94q0 55 -20.5 78t-77.5 33h-10z" />
<glyph unicode="i" horiz-adv-x="546" d="M70 1071l6 8l18 37l15 33l8 12q2 2 6 4q8 4 37 4h231q-14 -47 -21.5 -103t-7.5 -114v-37v-579l3 -111q0 -119 108 -129q-16 -49 -24 -63q-23 -37 -78 -37h-101l-116 2q18 55 23 109.5t5 132.5v624v17v75q0 35 -10 56q-20 41 -102 59zM170 1300q27 76 31 84t22 48l17 36 l14 25q14 18 49 18l154 -2l-47 -120q-23 -57 -44.5 -73t-78.5 -16h-117z" />
<glyph unicode="j" horiz-adv-x="552" d="M-127 -391l18 26q8 20 13.5 35t13.5 25q16 25 35 24q18 0 57 -6t60 -6q127 0 127 119l4 70v1052q0 57 -19.5 86t-75.5 41l-12 4l23 49l18 33q12 8 31 8l74 2h178l-4 -10q-14 -39 -22.5 -119.5t-8.5 -126.5v-913q0 -209 -43 -301q-61 -131 -229 -131q-121 0 -238 39z M193 1307l55 129q6 14 13 31.5t19.5 29.5t24.5 16q6 2 29 3h145l-43 -121q-23 -61 -49.5 -74.5t-101.5 -13.5h-92z" />
<glyph unicode="k" horiz-adv-x="1091" d="M76 1499q14 41 20 51q27 49 68 54l74 -2l36 2l119 2q-14 -45 -22.5 -83t-8.5 -83v-733l281 350q55 72 99 92t135 20q66 0 112 11l-31 -90l-6 -21l-4 -12q-14 -8 -28 -10l-56 -5q-57 -10 -114 -61q-43 -39 -86 -107l231 -636l18 -35q25 -57 49.5 -81t77.5 -24l39 -2 l-24 27v-10l-6 -11l-25 -61l-14 -29q-8 -8 -28.5 -11t-66.5 -3h-161l-19 2q12 41 13 82q0 27 -5.5 50.5t-17.5 53.5l-197 529l-161 -203v-244l2 -35l4 -51l12 -47q25 -39 86 -39l-4 -6l-12 -35l-17 -45q-12 -12 -35 -12l-243 4q20 68 20 111q2 31 3 61.5t1 79.5v1081l-2 60 q-4 33 -10 47q-18 47 -84 55z" />
<glyph unicode="l" horiz-adv-x="555" d="M78 1497q18 49 29.5 67.5t23.5 24.5l39 8h78l74 2h65h10q-20 -53 -25 -121.5t-5 -156.5v-1051q0 -88 22.5 -120.5t93.5 -49.5q-18 -49 -27.5 -65.5t-22.5 -24.5t-38 -8l-71 -2l-170 -2l10 37q14 51 19 97t5 114v1063q0 78 -14 114q-24 64 -96 74z" />
<glyph unicode="m" horiz-adv-x="1697" d="M80 1077l33 60q10 18 24 28q23 16 101 17q45 0 79 12l43 16v-131q98 72 160 101q78 37 150 37q127 0 250 -150q61 76 138 116t159 40q143 0 223 -123q72 -109 71 -271v-503v-43l7 -60q4 -29 14 -51q23 -47 94 -61q-16 -51 -29.5 -74t-27.5 -31q-16 -6 -43 -6h-78l-74 -2 l-86 2q39 156 39 322v383l-4 147q0 88 -33 149q-43 80 -133 80q-57 0 -110.5 -30.5t-83 -105.5t-29.5 -218v-381q0 -96 18 -151q29 -84 101 -97q-20 -55 -39 -76.5t-58 -21.5l-243 -2q27 68 34 135.5t7 165.5v424q0 135 -27 221q-43 137 -145 137q-27 0 -55.5 -8t-53.5 -22 q-68 -39 -92 -138q-16 -66 -16 -163v-463q0 -137 110 -178q-27 -84 -47 -95q-12 -10 -39 -12l-74 -2l-108 -2l-62 2q25 70 32 147.5t7 176.5v557l-2 34q0 29 -2 52.5t-11 46t-28.5 39t-52.5 22.5z" />
<glyph unicode="n" horiz-adv-x="1153" d="M88 1083q6 14 12 30.5t17 31.5q23 37 59 37l74 -2q68 0 117 28v-139q86 82 156.5 115t156.5 33q154 0 225 -121q61 -102 62 -281v-526q0 -78 16 -115q24 -56 92 -72q-16 -59 -38.5 -81.5t-53.5 -22.5h-18l-215 4q23 68 29.5 142.5t6.5 166.5v477q0 166 -59 236 q-49 59 -143 59q-129 0 -181 -125q-34 -84 -34 -231v-8v-408v-8l2 -65q0 -16 2 -31q2 -8 10 -31q20 -51 92 -72q-6 -20 -10 -41q-10 -18 -14 -26q-23 -37 -60 -37h-239q14 41 24 93t10 91v723v56q0 29 -8 47q-18 49 -80 69z" />
<glyph unicode="o" d="M109 596q0 262 108 426q125 186 361 186q227 0 352 -192q109 -168 108 -424q0 -262 -108 -426q-125 -189 -361 -189q-229 0 -352 193q-109 170 -108 426zM315 575q0 -229 82 -360q68 -109 176 -109q143 0 211 183q49 133 50 307q0 180 -46 305q-68 184 -213 184 q-150 0 -215 -190q-45 -131 -45 -320z" />
<glyph unicode="p" horiz-adv-x="1200" d="M145 1182h54.5t68.5 -4t59.5 -19.5t28.5 -71.5l17 -61l39 53l18 17q104 100 234 100q121 0 223 -82q94 -76 149 -201q31 -66 42.5 -147.5t11.5 -177.5q0 -240 -97 -406q-114 -196 -321 -196h-2q-78 0 -152 32.5t-151 106.5v-293q0 -74 21 -112t87 -48l-24 -57 q-10 -23 -23.5 -32t-99.5 -9h-176q23 63 29.5 125.5t6.5 148.5v1051q0 84 -18 176q-6 31 -25 107zM365 551q0 -113 12 -182q20 -113 74 -172q72 -86 170 -86q150 0 217 180q47 125 47 293q0 174 -47 301q-68 180 -211 180q-47 0 -91 -22.5t-77 -59.5q-61 -68 -82 -209 q-12 -82 -12 -223z" />
<glyph unicode="q" horiz-adv-x="1196" d="M109 596q0 242 102 410q118 194 330 194h2q78 0 153.5 -43t143.5 -135l6 65q12 53 29.5 71t66.5 18l111 6q-41 -146 -41 -293v-1000v-71q0 -39 10 -71t37.5 -53.5t73.5 -21.5h18l-18 29l-9 -16l-26 -60q-20 -35 -40 -44t-67 -9l-49 2h-141q20 70 27.5 124t7.5 142l-2 305 q-78 -86 -150 -122.5t-149 -36.5q-127 0 -226.5 76.5t-150.5 207.5q-25 63 -37 155.5t-12 170.5zM322 582q0 -133 22 -226q33 -135 115 -198q55 -43 127 -43q74 0 128 46t79.5 114.5t35 157.5t9.5 181q0 113 -13 185q-20 117 -69 178q-37 43 -80 66.5t-98 23.5 q-145 0 -211 -180q-45 -125 -45 -305z" />
<glyph unicode="r" horiz-adv-x="733" d="M70 1075l18 43q18 39 30.5 49.5t49.5 10.5h104q20 0 43 2q18 8 27 10l-18 -240l36 -4l2 39l19 -24l6 24q37 104 68 148q50 69 121 69h2q25 0 46 -5t44 -9l34 -4l27 6q-6 -23 -10 -40t-19 -50q-33 -63 -88 -64q-12 0 -24 2q-31 8 -43 11h-27q-92 0 -129 -123 q-24 -79 -24 -194v-9l-3 -428l3 -90q4 -45 38.5 -72t77.5 -33q-8 -31 -16 -45q-20 -39 -46 -48t-75 -9h-43h-104l-50 2q20 51 28.5 106.5t8.5 114.5v635v74q0 41 -10 69q-20 61 -104 76z" />
<glyph unicode="s" horiz-adv-x="894" d="M70 156q35 72 59.5 92t99.5 41q-4 -20 -2 -29q0 -76 57.5 -127t129.5 -51q68 0 125 43q66 49 65 123q0 86 -160 237q-63 57 -125 115q-33 31 -66.5 63.5t-59.5 65.5q-63 84 -64 193q0 96 47 163q41 66 96.5 93.5t137.5 27.5q25 0 46 -1t85 -9l59 -10q51 0 78 2t74 14 q-27 -74 -45 -100q-35 -49 -91 -49q-23 0 -62.5 9t-57.5 11l-43 4q-53 0 -95.5 -30.5t-42.5 -90.5q0 -43 35 -92q10 -16 46 -52t77 -75q59 -53 90 -80q113 -104 162 -174q70 -98 70 -190q0 -51 -21 -109q-35 -104 -124 -157.5t-208 -53.5q-225 0 -372 183z" />
<glyph unicode="t" horiz-adv-x="638" d="M43 1022l2 6l10 41q8 31 12.5 45t13.5 27.5t19 19.5q12 8 35 8l62 7l-4 145q0 39 36 63q12 10 36 21.5t44 21.5l53 31l19 12v-296l45 -5h70q49 0 70.5 2.5t54.5 14.5q-23 -106 -50 -129q-20 -12 -57 -19l-133 -2v-741q0 -29 1 -55.5t9 -61.5t29.5 -57.5t60.5 -22.5 q18 0 35 4q4 2 20.5 8.5t24.5 10.5q12 6 19 6q14 0 27.5 -17.5t21.5 -37.5q-59 -51 -113 -81t-115 -30q-90 0 -148 64.5t-58 162.5l-2 115l2 729l-54 4q-18 0 -43.5 -4t-54.5 -10z" />
<glyph unicode="u" d="M57 1079q35 70 64 85.5t117 15.5l79 2h78q-20 -70 -25 -162t-5 -119v-569q0 -100 47 -164q55 -74 151 -74q27 0 50.5 6t50.5 19q76 43 100 143q14 57 14 172v465q0 90 -17.5 122t-86.5 52q4 16 7 30.5t15 37.5q20 37 58 37h45l190 4q-12 -63 -18 -142t-6 -147v-592 q0 -84 14 -123q24 -66 90 -76q-10 -25 -16 -41t-21 -32q-20 -27 -55 -27l-82 6q-25 0 -39 -2q-8 -2 -68 -14l5 158q-74 -100 -152 -143.5t-164 -43.5q-147 0 -223 113q-66 98 -66 264q0 147 -2 294.5t-4 295.5q0 72 -26.5 107.5t-98.5 41.5z" />
<glyph unicode="v" horiz-adv-x="972" d="M0 1075l12 43l19 39q12 14 29.5 19.5t62.5 5.5h151q-16 -27 -16 -56q0 -35 14 -67l203 -635q12 -41 25 -80q20 -72 37 -143q14 57 27.5 106t35.5 117l150 483l12 70q0 51 -30 78.5t-79 27.5q14 63 35 81t80 18q31 0 94.5 -2t95.5 -2l-337 -1028q-27 -82 -48.5 -108 t-97.5 -44l-33 -12q-10 41 -18 67.5t-29 79.5l-270 778q-10 27 -19.5 54.5t-27.5 52.5q-31 49 -78 57z" />
<glyph unicode="w" horiz-adv-x="1507" d="M2 1081l6 19q10 29 21 41q23 39 59 39h195q-8 -18 -9 -52q0 -33 5.5 -59.5t19.5 -64.5l190 -596q12 -37 24.5 -108t25.5 -138q14 72 22 106.5t17 53.5l18 57l129 422q-16 84 -51 170q-14 41 -28.5 61.5t-31 27.5t-41 13t-43.5 12l15 39l22 35q10 10 29.5 16.5t60.5 6.5 l179 -2l-9 -39q0 -33 7.5 -66t19.5 -78l178 -606q8 -29 15.5 -79t17.5 -142q14 47 35 117l28 102l146 502q6 16 11 43t5 43q0 47 -34.5 73.5t-81.5 26.5l6 23l12 43q20 39 55 39l185 -6l61 4l-305 -951q-33 -102 -45 -129q-37 -82 -84 -100l-49 -14l-41 -17l-178 623 q-6 18 -21 18q-23 0 -18 -26l2 -33q0 -35 -6 -57l-23 -66l-90 -258l-14 -41l-23 -55q-10 -25 -20 -35q-23 -33 -74 -49l-55 -21q-14 51 -20.5 77t-20.5 65l-265 796q-27 76 -49 111q-37 55 -92 63z" />
<glyph unicode="x" horiz-adv-x="1017" d="M10 0q8 39 13 55q12 41 30 41q25 4 42.5 7t38 8.5t45 31t42.5 60.5l19 35l190 374l-145 289q-53 104 -92 137t-99 45l17 50q10 25 20 30q10 8 27.5 12.5t66.5 4.5l154 2v-8q0 -25 18 -70q2 -6 31 -70l125 -274l168 336q35 68 57.5 77t46.5 9h72l74 -2l-29 -72 q-4 -12 -16 -21l-17 -2l-24 -4q-14 -2 -27.5 -15t-30.5 -34l-45 -74l-155 -315l192 -375q27 -49 31 -57q18 -31 41 -53q39 -47 98 -56q-16 -47 -27.5 -66.5t-25.5 -25.5q-12 -8 -51 -12l-92 2l-105 2l4 39q0 47 -7 73.5t-32 75.5l-157 316l-183 -379l-10 -21l-24 -43 q-16 -31 -23 -36q-25 -29 -66 -29h-122z" />
<glyph unicode="y" horiz-adv-x="1026" d="M-78 -403l19 41q6 12 12 22t17.5 23.5t27.5 13.5q31 0 68 -10q18 -2 34.5 -5.5t40.5 -3.5q70 0 119 30t84 83q12 16 29.5 52t25.5 55l47 116l-305 904l-22 59q-16 45 -29 59q-18 23 -61 33l12 31l12 28q12 33 28.5 42.5t53.5 9.5h49l111 2q-6 -12 -8 -27.5t-4 -32.5 q0 -51 18 -98l170 -518q31 -88 46 -145.5t32 -131.5q23 104 45 172q2 6 37 105l135 379q8 25 17.5 50.5t9.5 49.5q0 53 -44.5 75.5t-103.5 22.5l4 13q18 53 45 68.5t92 15.5q55 0 111.5 -1t112.5 -1l-463 -1231q-68 -184 -141 -271q-99 -118 -251 -118h-3q-49 0 -116 10 t-114 29z" />
<glyph unicode="z" horiz-adv-x="985" d="M25 -2q57 125 139 258l493 803q-102 0 -202.5 3t-161.5 5q-47 0 -73.5 -4.5t-65.5 -20.5q27 104 57.5 124t144.5 20q63 0 190.5 -6t190.5 -6q92 0 185 12q-18 -41 -53 -105.5t-101 -173.5l-471 -774q106 0 257 -5t173 -5q53 0 86 4t80 20l-2 -6q-35 -102 -71 -124.5 t-150 -22.5l-178 4h-467z" />
<glyph unicode="{" horiz-adv-x="665" d="M92 737q184 -20 260 -67q63 -39 64 -107v-590q0 -84 37 -114q31 -25 104 -25v-70h-166q-152 0 -151 140v682q0 104 -80 151q80 45 80 152v682q0 139 151 139h166v-70q-76 0 -108.5 -25.5t-32.5 -113.5v-592q0 -66 -62 -104q-76 -47 -262 -68z" />
<glyph unicode="|" horiz-adv-x="360" d="M109 0v1475h143v-1475h-143z" />
<glyph unicode="}" horiz-adv-x="665" d="M109 -168q76 0 104 23q39 31 39 118v592q0 66 61 105q76 47 262 67q-184 20 -260 68q-63 39 -63 106v590q0 88 -33 113.5t-110 25.5v70h165q74 0 114 -34t40 -105v-682q0 -102 78 -152q-37 -23 -57.5 -63.5t-20.5 -87.5v-682q0 -70 -41 -105t-113 -35h-165v68z" />
<glyph unicode="~" horiz-adv-x="980" d="M109 580q0 129 45 211q53 96 151 96q41 0 90 -19q33 -12 97 -45l96 -45q20 -8 41.5 -15t50.5 -7q41 0 65.5 42t24.5 91h102q0 -129 -45 -211q-53 -96 -151 -96q-33 0 -70 11t-74 30q-76 33 -149 67q-27 12 -39 17q-25 10 -41 10q-45 0 -69.5 -44t-24.5 -93h-100z" />
<glyph unicode="&#xa1;" horiz-adv-x="550" d="M90 0q37 88 50.5 189.5t13.5 216.5q0 96 12 227q29 305 29 381q0 47 13 60t56 13h37q-16 -51 -16 -114q0 -70 6 -142q18 -213 18 -237l4 -55l35 -299l10 -131q0 -72 -22 -90.5t-96 -18.5l-41 2q-25 0 -51.5 -1t-57.5 -1zM168 1280l47 129q14 35 22.5 47t20.5 17l35 4h61 l78 2l-29 -80l-24 -53q-16 -37 -34.5 -51.5t-57.5 -14.5h-86h-33z" />
<glyph unicode="&#xa2;" horiz-adv-x="933" d="M106 592q0 211 99 377q111 184 303 239l-4 123h84l-6 -114q84 0 166 -31q43 -16 145 -72l-41 -82l-23 -35q-16 -27 -31.5 -39t-41.5 -12l-41 4v19q0 53 -37 88q-25 25 -96 59q0 -156 -3.5 -327t-5.5 -277l7 -397q27 -8 38 -4q43 0 80 15t68 38l45 33l18 12q10 0 35 -25 l23 -24l8 -8q-55 -74 -136 -120t-175 -46l4 -129l-82 -2l2 133q-199 31 -307 221q-94 164 -95 383zM315 635q0 -158 33 -262q45 -143 164 -248l6 420l-6 555q-72 -37 -113 -96q-29 -41 -51 -105.5t-27.5 -154t-5.5 -109.5z" />
<glyph unicode="&#xa3;" horiz-adv-x="995" d="M45 705l12 34q14 43 25 62q18 37 43 47l27 6l8 2l33 -4q-20 78 -33 136.5t-13 109.5q0 174 101.5 285.5t269.5 111.5q88 0 170 -53q70 -45 135 -131q-35 -27 -67 -31q-14 0 -31 10l-37 29q-35 23 -66.5 32t-64.5 9q-86 0 -138 -58.5t-52 -146.5q0 -61 26 -149 q18 -61 53 -148l52 -4h174l86 12l-8 -16q-25 -57 -39 -80q-35 -53 -109 -53l-61 2l-54 -2l43 -111q14 -45 19 -82q0 -74 -78 -174q-55 -72 -176 -184l162 8q45 0 196 -24q76 -12 121 -13q57 0 107.5 13.5t107.5 39.5l-24 29q-8 -14 -15.5 -34.5t-11.5 -32.5 q-31 -86 -61 -121q-41 -47 -109 -47q-80 0 -193.5 11t-242.5 25q-47 0 -94.5 -7t-77.5 -25l-6 -4q-2 10 -9.5 34.5t-7.5 44.5q0 31 25 66l28 31l35 37q43 45 68 90q33 61 33 131q0 82 -29 155q-12 33 -29 66q-27 51 -43 82h-28q-70 0 -152 -16z" />
<glyph unicode="&#xa4;" horiz-adv-x="935" d="M88 434l123 121q-59 78 -59 186q0 100 59 183l-121 118q31 41 68 74l127 -123q84 61 184 62q102 0 184 -60l125 123q31 -29 37 -35q18 -18 33 -43l-121 -114q59 -82 59 -185q0 -100 -61 -188l123 -123l-74 -72l-121 123q-84 -61 -184 -61q-102 0 -184 63l-127 -123 q-39 33 -70 74zM258 737q0 -88 61.5 -149.5t149.5 -61.5t149.5 61.5t61.5 149.5t-61.5 149.5t-149.5 61.5t-149.5 -61.5t-61.5 -149.5z" />
<glyph unicode="&#xa5;" horiz-adv-x="1142" d="M2 1374l29 62q20 37 59 37l76 2h135q4 -31 14 -60q4 -10 27 -55l252 -518q10 -20 18.5 -39t32.5 -80l217 487q10 23 14.5 38.5t4.5 33.5q0 43 -28 63.5t-67 24.5q23 72 45.5 88.5t98.5 16.5l178 -2q-25 -45 -37 -68q-23 -41 -35 -70l-268 -618h344v-82h-381l-33 -70v-47 h414v-80h-414v-153q0 -111 27 -146t86 -35l-18 -53l-17 -33q-8 -8 -25.5 -14t-48.5 -6h-200l-56 2q31 111 31 231v205h-418v82h418v57l-22 58h-394v84l355 -2l-178 352q-57 115 -80 154q-59 102 -105 133q-20 12 -51 20z" />
<glyph unicode="&#xa7;" horiz-adv-x="1142" d="M82 -289l4 17q31 104 59 135q37 39 131 51l-6 -59q0 -86 99 -138q78 -41 161 -41q96 0 164 43q82 53 82 154q0 57 -43 113q-31 39 -92 84l-57 45l-138 100l-92 72q-113 86 -163 155.5t-56 126.5l-6 43q0 117 81 179.5t241 62.5q-121 88 -177 166q-61 86 -61 178 q0 150 119 234q109 76 270 75q104 0 201.5 -25.5t177.5 -82.5l-25 -47l-26 -47q-16 -18 -38 -29.5t-61 -15.5l-26 -3q0 82 -68 127q-55 37 -137 37q-80 0 -142.5 -49t-62.5 -131q0 -29 11 -63q18 -61 124 -144q70 -49 95 -65l114 -76q66 -43 123 -88q68 -53 103 -100 q43 -57 53 -119l4 -54q0 -109 -72.5 -185.5t-191.5 -76.5q-27 0 -39 2q18 -25 32.5 -40t22.5 -21l29 -21q82 -59 125 -120q51 -76 51 -164q0 -162 -143 -254q-125 -80 -301 -80q-104 0 -185.5 21.5t-189.5 72.5l-25 10l-16 11zM303 662l4 -44q10 -37 55 -86 q23 -25 77.5 -72.5t123.5 -88.5q90 -53 148 -54q59 0 100 43t41 105v18q-6 43 -41 88q-18 23 -73.5 74t-127.5 96q-96 61 -153 62q-59 0 -106.5 -39t-47.5 -102z" />
<glyph unicode="&#xa8;" horiz-adv-x="569" d="M-41 1425q0 55 36 95.5t83 40.5q51 0 86 -39t35 -99q0 -57 -36 -99t-85 -42t-84 42t-35 101zM371 1421q0 61 32.5 100.5t85.5 39.5q49 0 85 -40t36 -98q0 -59 -34.5 -100t-83.5 -41q-47 0 -84 41t-37 98z" />
<glyph unicode="&#xa9;" horiz-adv-x="1703" d="M88 739q0 315 224.5 539.5t539.5 224.5q317 0 540.5 -223t223.5 -541q0 -317 -223.5 -540.5t-540.5 -223.5t-540.5 223.5t-223.5 540.5zM199 737q0 -272 191.5 -467.5t463.5 -195.5t460.5 194.5t188.5 468.5t-189.5 468t-461.5 194t-462.5 -195t-190.5 -467zM412 709 q0 195 130 322.5t324 127.5q88 0 183 -33q14 -6 32.5 -11t30.5 -7q25 0 39 31l2 10h18l17 -279l-21 2q-14 104 -86.5 173t-179.5 69q-154 0 -235 -123q-72 -106 -72 -270q0 -158 76 -264q88 -123 239 -123q92 0 170 49t119 135l16 -6q-53 -111 -144 -171t-214 -60 q-186 0 -315 120.5t-129 307.5z" />
<glyph unicode="&#xaa;" horiz-adv-x="927" d="M88 557v121h739v-121h-739zM88 926q0 100 94 164q33 22 326 116v121q0 63 -22.5 92t-86.5 29q-35 0 -70.5 -18.5t-35.5 -51.5q0 -16 11 -40.5t11 -34.5q0 -39 -28.5 -61.5t-67.5 -22.5t-64.5 25.5t-25.5 66.5l4 37q29 80 127 120q80 33 182 33q125 0 189 -37 q82 -47 82 -164v-372q0 -45 7 -66.5t42 -21.5q39 0 63 41l15 -15q-43 -57 -81 -84.5t-102 -27.5q-102 0 -141 96l-4 14q-37 -47 -102.5 -79.5t-126.5 -32.5q-78 0 -136.5 48t-58.5 126zM285 969q0 -49 27.5 -85t74.5 -36q35 0 68 20q16 10 55 47v242q-74 -33 -145 -63 q-80 -47 -80 -125z" />
<glyph unicode="&#xab;" horiz-adv-x="931" d="M84 569l264 357l144 -2l-240 -357l272 -428h-157zM393 569l264 357l146 -2l-240 -357l271 -428h-158z" />
<glyph unicode="&#xac;" horiz-adv-x="1208" d="M109 764v158h991v-480h-107v322h-884z" />
<glyph unicode="&#xad;" horiz-adv-x="614" d="M94 537l15 49l16 53l12 31q14 20 60 20q49 0 124.5 -5t88.5 -5q35 0 69 6q35 10 49 12q-16 -72 -34 -104q-29 -49 -80 -49q-16 0 -57.5 4t-63.5 4h-78q-47 0 -65.5 -2t-55.5 -14z" />
<glyph unicode="&#xae;" horiz-adv-x="1585" d="M29 739q0 315 224 539.5t540 224.5q317 0 540 -223t223 -541q0 -317 -223 -540.5t-540 -223.5t-540.5 223.5t-223.5 540.5zM139 737q0 -272 191.5 -467.5t464.5 -195.5q272 0 460.5 194.5t188.5 468.5t-189.5 468t-461.5 194t-463 -195t-191 -467zM416 330q14 -2 26 0 q14 2 29 4q33 12 42 25.5t9 48.5v663q0 78 -76 78l-30 2v18h428q115 0 196 -49q98 -59 99 -168q0 -88 -76 -153q-68 -57 -160 -74l197 -324q43 -74 135 -73v-19h-289l-205 381l-47 2v-284q0 -29 7.5 -46.5t31.5 -25.5l10 -6q12 2 27.5 0t28.5 -2v-19h-381zM694 766 q35 -6 60 -4q92 0 148 48t56 138q0 80 -55 123t-139 43l-70 -6v-342z" />
<glyph unicode="&#xaf;" horiz-adv-x="628" d="M35 1288l18 66l23 63l18 39q12 14 29.5 21.5t48.5 7.5q45 0 137 -6t140 -6q70 0 153 24l-18 -67q-25 -74 -51.5 -104t-79.5 -30q-33 0 -89.5 5.5t-66.5 5.5h-98q-86 0 -101.5 -2t-62.5 -17z" />
<glyph unicode="&#xb0;" horiz-adv-x="737" d="M109 1225q0 115 75.5 196.5t184.5 81.5q104 0 182 -82t78 -196q0 -117 -75.5 -199t-184.5 -82t-184.5 82t-75.5 199zM162 1227q0 -94 60.5 -161t146.5 -67q84 0 145 65.5t61 160.5q0 90 -60 156.5t-146 66.5q-84 0 -145.5 -65.5t-61.5 -155.5z" />
<glyph unicode="&#xb4;" horiz-adv-x="462" d="M113 1278l166 301h204l-262 -301h-108z" />
<glyph unicode="&#xb6;" horiz-adv-x="1132" d="M31 1065q0 174 126 292t300 118h647v-64h-619q-137 0 -226 -102.5t-89 -241.5q0 -141 88 -244.5t227 -103.5h107v543h127v-1262h-238l2 27q27 -4 68 5t41 62v561h-135q-174 0 -300 118t-126 292zM850 0v1262h127v-1168q0 -51 31 -61q12 -4 47 -4l30 -2v-27h-235z" />
<glyph unicode="&#xb7;" horiz-adv-x="460" d="M88 621q18 51 35.5 99t42.5 105q14 37 51 37h154l-31 -100l-18 -60q-2 -10 -5 -18q-4 -16 -12 -29q-16 -37 -57 -37h-92z" />
<glyph unicode="&#xb8;" horiz-adv-x="483" d="M31 -350q6 8 12 14q14 12 31 12q12 0 27.5 -6t42 -18t45 -18.5t44.5 -6.5q43 0 72 23q37 29 37 80q0 53 -40 81.5t-93 28.5l22 172l60 -8l-17 -131h39h11q63 -6 101 -44t38 -101q0 -84 -52.5 -130.5t-134.5 -46.5q-66 0 -124 25t-121 74z" />
<glyph unicode="&#xba;" horiz-adv-x="921" d="M88 1133q0 170 106.5 270t276.5 100q164 0 263.5 -101.5t99.5 -266.5q0 -176 -102.5 -280.5t-280.5 -104.5q-164 0 -263.5 107.5t-99.5 275.5zM94 557v121h735v-121h-735zM301 1159q0 -119 31 -211q45 -133 137 -133q90 0 127 100q25 68 25 181q0 119 -29 209 q-43 135 -133 135q-86 0 -127 -105q-31 -78 -31 -176z" />
<glyph unicode="&#xbb;" horiz-adv-x="931" d="M98 141l271 426l-242 359h143l269 -359l-287 -428zM408 141l270 426l-240 359h142l268 -359l-287 -428z" />
<glyph unicode="&#xbf;" horiz-adv-x="686" d="M31 299q0 82 41 160q31 59 98 133l80 86q12 12 26.5 32.5t47.5 71.5q20 29 30.5 51.5t10.5 55.5q0 59 -35 84.5t-94 25.5l14 35l20 41l17 25q8 8 20 12t41 4h78l35 -2q6 -27 10 -51.5t4 -50.5q0 -43 -8 -91.5t-20.5 -94.5t-34.5 -91q-8 -16 -82 -135q-41 -66 -60 -115 q-27 -68 -26 -135q0 -90 49 -152.5t139 -62.5q51 0 99.5 22.5t97.5 61.5l2 -10l4 -39q0 -74 -105 -127q-92 -47 -184 -47q-135 0 -225 84t-90 219zM260 1282l21 57q12 35 26 72q23 51 37 56.5t31 7.5q12 0 24 2h33l92 -4l-49 -123q-16 -41 -32.5 -54.5t-55.5 -13.5h-127z " />
<glyph unicode="&#xc0;" horiz-adv-x="1175" d="M29 0q14 39 37 123q6 23 53 211q31 129 61.5 239.5t71.5 243.5t80 256l39 115q10 33 20 71.5t8 45.5q0 27 -17 40t-44 17l4 14q12 41 23.5 57.5t29.5 26.5l43 8h70h117l55 2q27 -61 65.5 -168.5t98.5 -293.5q29 -94 71 -238q70 -236 105 -401l33 -154q23 -102 108 -115 q-8 -33 -10 -37q-6 -20 -15.5 -33.5t-17.5 -17.5q-18 -12 -59 -12h-166l-100 2q31 86 30 160q0 27 -3 55.5t-11 73.5l-29 141h-520l-35 -129q-16 -66 -16 -115q0 -80 65 -90l-14 -47q-8 -25 -18 -35q-10 -8 -33 -12t-72 -4h-108zM295 569h446l-94 330l-125 420 q-115 -375 -227 -750zM360 1868h201l164 -269h-100z" />
<glyph unicode="&#xc1;" horiz-adv-x="1175" d="M29 0q14 39 37 123q6 23 53 211q31 129 61.5 239.5t71.5 243.5t80 256l39 115q10 33 20 71.5t8 45.5q0 27 -17 40t-44 17l4 14q12 41 23.5 57.5t29.5 26.5l43 8h70h117l55 2q27 -61 65.5 -168.5t98.5 -293.5q29 -94 71 -238q70 -236 105 -401l33 -154q23 -102 108 -115 q-8 -33 -10 -37q-6 -20 -15.5 -33.5t-17.5 -17.5q-18 -12 -59 -12h-166l-100 2q31 86 30 160q0 27 -3 55.5t-11 73.5l-29 141h-520l-35 -129q-16 -66 -16 -115q0 -80 65 -90l-14 -47q-8 -25 -18 -35q-10 -8 -33 -12t-72 -4h-108zM295 569h446l-94 332l-125 418 q-115 -375 -227 -750zM469 1599l166 267h205l-262 -267h-109z" />
<glyph unicode="&#xc2;" horiz-adv-x="1175" d="M29 0q14 39 37 123q6 23 53 211q31 129 61.5 239.5t71.5 243.5t80 256l39 115q10 33 20 71.5t8 45.5q0 27 -17 40t-44 17l4 16q10 37 23.5 56.5t29.5 25.5l43 8h70h117l55 2q27 -61 65.5 -168.5t98.5 -293.5q29 -94 71 -238q70 -236 105 -401l33 -154q23 -102 108 -115 q-8 -33 -10 -37q-6 -20 -15.5 -33.5t-17.5 -17.5q-18 -12 -59 -12h-166l-100 2q31 86 30 160q0 27 -3 55.5t-11 73.5l-29 141h-520l-35 -129q-16 -66 -16 -115q0 -80 65 -90l-14 -47q-8 -25 -18 -35q-10 -8 -33 -12t-72 -4h-108zM272 1599l242 265h143l246 -265h-149 l-170 154l-160 -154h-152zM295 569h446l-94 332l-125 418q-115 -375 -227 -750z" />
<glyph unicode="&#xc3;" horiz-adv-x="1175" d="M29 0q14 39 37 123q6 23 53 211q31 129 61.5 239.5t71.5 243.5t80 256l39 115q10 33 20 71.5t8 47.5q0 27 -18 41t-43 14l4 16q10 37 23.5 56.5t29.5 25.5l43 8h70h117l55 2q27 -61 65.5 -168.5t98.5 -293.5q29 -94 71 -238q70 -236 105 -401l33 -154q23 -102 108 -115 q-8 -33 -10 -37q-6 -20 -15.5 -33.5t-17.5 -17.5q-18 -12 -59 -12h-166l-100 2q31 86 30 160q0 27 -3 55.5t-11 73.5l-29 141h-520l-35 -129q-16 -66 -16 -115q0 -80 65 -90l-14 -47q-8 -25 -18 -35q-10 -8 -33 -12t-72 -4h-108zM283 1583q0 106 44 175t138 69 q29 0 57.5 -12.5t68.5 -37t74.5 -40t69.5 -15.5q47 0 79 34t36 81h43q0 -111 -37 -172q-45 -74 -141 -74q-39 0 -72 12.5t-70.5 36t-62.5 35.5q-39 18 -70 19q-47 0 -71.5 -26t-38.5 -73l-4 -12h-43zM295 569h446l-94 332l-125 418q-115 -375 -227 -750z" />
<glyph unicode="&#xc4;" horiz-adv-x="1175" d="M27 0q14 39 36 123q6 23 54 211q31 129 61.5 239.5t71.5 243.5t80 256l39 115q10 33 20 71.5t8 47.5q0 27 -17 40t-44 17l4 14q12 41 23.5 57.5t29 24.5t43.5 8h70h117l55 5q37 -86 86 -230q41 -119 78 -235q29 -94 71 -238q70 -236 105 -401l33 -154q23 -102 108 -115 q-8 -33 -10 -37q-6 -20 -15.5 -33.5t-17.5 -17.5q-18 -12 -59 -12h-166l-100 2q31 86 30 160q0 27 -3 55.5t-11 73.5l-29 141h-520l-35 -127q-16 -66 -16 -117q0 -80 65 -90l-14 -47q-8 -25 -18 -35q-10 -8 -33 -12t-72 -4h-108zM203 1696q0 47 34.5 84t81.5 37q53 0 87 -34 t34 -87t-35 -88t-88 -35q-45 0 -79.5 37t-34.5 86zM293 567h446l-94 332l-125 418q-115 -375 -227 -750zM614 1692q0 51 35 88t84 37q47 0 84 -35t37 -84t-35 -86t-84 -37q-47 0 -84 35t-37 82z" />
<glyph unicode="&#xc5;" horiz-adv-x="1175" d="M29 0q14 39 37 123q6 23 53 211q31 129 61.5 239.5t71.5 243.5t80 256l39 115q10 33 20 71.5t8 47.5q0 27 -18 41t-43 14q10 41 24 68q23 37 52 36h268q35 -84 86 -231q45 -133 78 -236q68 -221 94 -313q49 -172 80 -317l33 -154q23 -102 108 -115q-8 -33 -10 -37 q-6 -20 -15.5 -33.5t-17.5 -17.5q-18 -12 -59 -12h-166l-100 2q31 86 30 160q0 27 -3 55.5t-11 73.5l-29 141l-520 -2l-35 -127q-16 -66 -16 -115q0 -80 65 -90l-14 -47q-8 -25 -18 -35q-10 -8 -33 -12t-72 -4h-108zM299 567h446l-94 332l-125 418q-115 -375 -227 -750z M389 1702q0 63 45 110.5t109 47.5q63 0 110 -45.5t47 -110.5q0 -66 -45 -113t-108 -47q-66 0 -112 46t-46 112zM457 1700q0 -39 28.5 -65.5t65.5 -26.5q39 0 65.5 26.5t26.5 67.5t-26.5 67.5t-67.5 26.5q-39 0 -65.5 -28.5t-26.5 -67.5z" />
<glyph unicode="&#xc6;" horiz-adv-x="1773" d="M4 4q55 106 117 250q94 217 112 256l336 711q6 12 15.5 35.5t9.5 50.5q0 35 -21.5 52t-54.5 23q27 57 57.5 74t102.5 17l92 2h907q-20 -78 -42.5 -102.5t-110.5 -69.5l-54 -25v12q0 27 -14 41.5t-31.5 19.5t-46.5 5h-24l-185 2q-88 0 -88 -92v-371q55 0 107.5 -1 t101.5 -1t103.5 1t107.5 13l-8 -20q-23 -66 -44.5 -87.5t-78.5 -21.5h-287v-485q0 -111 54 -141q23 -12 63 -17l82 -4h199q86 0 126 3t97 20l-21 -64q-20 -49 -40.5 -69.5t-61.5 -20.5h-750q14 43 21.5 80t7.5 70v622h-379l-149 -321q-31 -63 -49 -119q-27 -76 -27 -127 q0 -39 15.5 -69t50.5 -40q-16 -43 -32 -60.5t-37.5 -25.5t-53.5 -8l-76 -2zM539 891h163h68l90 2v450l-18 5l-11 2h-12h-63z" />
<glyph unicode="&#xc7;" horiz-adv-x="1077" d="M121 717q0 322 129 536q154 256 444 256q78 0 169 -23.5t157 -60.5l-29 -63q-12 -29 -26.5 -44t-41 -28.5t-77.5 -29.5l-17 -5l5 29q0 57 -43 85t-99 28q-170 0 -254 -244q-61 -176 -61 -387q0 -242 63 -414q92 -252 299 -252q51 0 118 18.5t120 47.5v-10 q0 -70 -18.5 -94.5t-88.5 -47.5q-57 -23 -137 -22h-28q-12 2 -19 2l-12 -150q92 0 139 -31.5t47 -101.5q0 -78 -52 -122t-132 -44q-61 0 -128 24.5t-122 65.5q25 25 47 25q18 0 33 -6q4 -2 31 -16q4 -2 33.5 -12.5t60.5 -10.5q39 0 72.5 22.5t33.5 69.5q0 51 -40 78t-93 27 l8 172q-68 6 -121 25.5t-100 53.5q-139 100 -209 289q-61 164 -61 365z" />
<glyph unicode="&#xc8;" horiz-adv-x="1122" d="M92 1358q20 68 46 88t100 20h792q-25 -84 -45 -107.5t-98 -60.5l-53 -26v10q0 37 -37 51.5t-80 14.5h-164q-57 0 -79.5 -5.5t-38 -28t-15.5 -52.5l-2 -70v-301h364l66 6q-12 -43 -23 -66q-18 -41 -33.5 -50t-37.5 -9l-70 -2l-266 2v-534q0 -47 35.5 -77t78.5 -30l392 2 q47 0 61.5 2.5t63.5 14.5l-9 -29q-8 -39 -10 -45q-8 -25 -19.5 -42.5t-25.5 -26.5t-41 -9l-782 2q20 55 27.5 114.5t7.5 129.5l2 993q0 53 -29 84t-78 37zM334 1868h201l163 -269h-100z" />
<glyph unicode="&#xc9;" horiz-adv-x="1122" d="M92 1358q20 68 46 88t100 20h792q-25 -84 -45 -107.5t-98 -60.5l-53 -26v10q0 37 -37 51.5t-80 14.5h-164q-57 0 -79.5 -5.5t-38 -28t-15.5 -52.5l-2 -70v-301h364l66 6q-12 -43 -23 -66q-18 -41 -33.5 -50t-37.5 -9l-70 -2l-266 2v-534q0 -47 35.5 -77t78.5 -30l392 2 q47 0 61.5 2.5t63.5 14.5l-9 -29q-8 -39 -10 -45q-8 -25 -19.5 -42.5t-25.5 -26.5t-41 -9l-782 2q20 55 27.5 114.5t7.5 129.5l2 993q0 53 -29 84t-78 37zM442 1599l166 267h205l-262 -267h-109z" />
<glyph unicode="&#xca;" horiz-adv-x="1122" d="M92 1358q20 68 46 88t100 20h792q-25 -84 -45 -107.5t-98 -60.5l-53 -26v10q0 37 -37 51.5t-80 14.5h-164q-57 0 -79.5 -5.5t-38 -28t-15.5 -52.5l-2 -70v-301h364l66 6q-12 -43 -23 -66q-18 -41 -33.5 -50t-37.5 -9l-70 -2l-266 2v-534q0 -47 35.5 -77t78.5 -30l392 2 q47 0 61.5 2.5t63.5 14.5l-9 -29q-8 -39 -10 -45q-8 -25 -19.5 -42.5t-25.5 -26.5t-41 -9l-782 2q20 55 27.5 114.5t7.5 129.5l2 993q0 53 -29 84t-78 37zM246 1599l241 265h144l246 -265h-150l-170 154l-160 -154h-151z" />
<glyph unicode="&#xcb;" horiz-adv-x="1122" d="M90 1360q20 68 46 88t100 20h792q-25 -84 -45 -107.5t-98 -60.5l-54 -26v12q0 37 -36.5 51.5t-79.5 14.5l-164 -2q-57 0 -79.5 -5.5t-38 -28t-15.5 -52.5l-2 -70v-301h364l66 6q-12 -43 -23 -65q-18 -41 -33.5 -50.5t-37.5 -9.5l-70 -2l-266 2v-534q0 -47 35.5 -77 t78.5 -30l392 2q47 0 61.5 2.5t63.5 14.5l-9 -29q-8 -39 -10 -45q-8 -25 -19.5 -42.5t-25.5 -26.5t-41 -9l-782 2q20 55 27.5 114.5t7.5 129.5l2 993q0 53 -29 84t-78 37zM236 1726q0 47 34.5 84t83.5 37q53 0 87 -33.5t34 -87.5q0 -49 -35 -85.5t-86 -36.5 q-49 0 -83.5 36.5t-34.5 85.5zM647 1724q0 53 33 88t86 35q47 0 84 -34.5t37 -83.5t-35 -86t-84 -37q-47 0 -84 34.5t-37 83.5z" />
<glyph unicode="&#xcc;" horiz-adv-x="618" d="M82 1868h201l163 -269h-100zM96 1360q31 72 58.5 89t113.5 17h191q-18 -55 -27.5 -129.5t-9.5 -144.5v-934q0 -68 21.5 -113t82.5 -51q-16 -59 -45.5 -76.5t-103.5 -17.5h-217q20 61 30.5 141t10.5 152v881l-4 69q-2 16 -2 23q-2 18 -9 37q-20 51 -90 57z" />
<glyph unicode="&#xcd;" horiz-adv-x="618" d="M96 1360q31 72 58.5 89t113.5 17h191q-18 -55 -27.5 -129.5t-9.5 -144.5v-934q0 -68 21.5 -113t82.5 -51q-16 -59 -45.5 -76.5t-103.5 -17.5h-217q20 61 30.5 141t10.5 152v881l-4 69q-2 16 -2 23q-2 18 -9 37q-20 51 -90 57zM190 1599l166 267h205l-262 -267h-109z" />
<glyph unicode="&#xce;" horiz-adv-x="618" d="M-6 1599l242 265h143l246 -265h-150l-170 154l-160 -154h-151zM96 1360q31 72 58.5 89t113.5 17h191q-18 -55 -27.5 -129.5t-9.5 -144.5v-934q0 -68 21.5 -113t82.5 -51q-16 -59 -45.5 -76.5t-103.5 -17.5h-217q20 61 30.5 141t10.5 152v881l-4 69q-2 16 -2 23 q-2 18 -9 37q-20 51 -90 57z" />
<glyph unicode="&#xcf;" horiz-adv-x="618" d="M-14 1729q0 47 33.5 82.5t82.5 35.5q53 0 87 -33.5t34 -87.5q0 -49 -34.5 -85.5t-84.5 -36.5q-49 0 -83.5 36.5t-34.5 88.5zM96 1360q31 72 58.5 89t113.5 17l191 2q-18 -55 -27.5 -130.5t-9.5 -145.5v-934q0 -68 21.5 -113t82.5 -51q-16 -59 -45.5 -76.5t-103.5 -17.5 h-217q20 61 30.5 141t10.5 152v881l-4 69q-2 16 -2 23q-2 18 -9 37q-20 51 -90 57zM395 1724q0 53 34 89t85 36q49 0 84 -34.5t35 -85.5q0 -49 -35 -86t-84 -37q-47 0 -83 35.5t-36 82.5z" />
<glyph unicode="&#xd1;" horiz-adv-x="1366" d="M94 1372q27 68 46.5 81t95.5 13l161 -2l-2 -12q0 -23 13 -49q6 -12 24 -43l631 -1086v891v35q0 37 -3 60.5t-11 48.5q-14 33 -37 50t-62 17q25 63 46.5 77.5t90.5 14.5h113q-31 -102 -31 -223v-938q0 -115 31 -160q25 -37 80 -45q-29 -72 -68 -90q-27 -12 -120 -12h-115 l-41 92q-14 33 -29 60q-25 41 -35 61l-489 819l-31 47q-4 8 -16 35q-29 66 -53 127q0 -98 6 -142t12 -73v-776q0 -66 24.5 -105t84.5 -45l-4 -12q-25 -63 -48.5 -76.5t-97.5 -13.5l-92 2q20 57 25.5 116.5t5.5 145.5v938q0 104 -26 138t-79 34zM377 1583q0 106 44 175 t138 69q29 0 57.5 -12.5t68.5 -37t75 -40t69 -15.5q47 0 79 34t36 81h43q0 -111 -37 -172q-45 -74 -141 -74q-39 0 -71.5 12.5t-70.5 36t-63 35.5q-39 18 -69 19q-47 0 -72 -26t-39 -73l-4 -12h-43z" />
<glyph unicode="&#xd2;" horiz-adv-x="1351" d="M123 733q0 309 125 516q147 242 424 242q137 0 252 -66q160 -94 237 -286q68 -166 68 -383q0 -319 -125 -527q-147 -245 -434 -245q-133 0 -248 67q-156 94 -234 295q-66 170 -65 387zM373 733q0 -229 49 -391q76 -250 252 -250q178 0 254 258q49 166 49 404 q0 221 -51 383q-78 243 -252 243q-61 0 -107.5 -26.5t-87.5 -77.5q-61 -82 -88 -264q-18 -127 -18 -279zM449 1868h200l164 -269h-100z" />
<glyph unicode="&#xd3;" horiz-adv-x="1351" d="M123 733q0 309 125 516q147 242 424 242q137 0 252 -66q160 -94 237 -286q68 -166 68 -383q0 -319 -125 -527q-147 -245 -434 -245q-133 0 -248 67q-156 94 -234 295q-66 170 -65 387zM373 733q0 -229 49 -391q76 -250 252 -250q178 0 254 258q49 166 49 404 q0 221 -51 383q-78 243 -252 243q-61 0 -107.5 -26.5t-87.5 -77.5q-61 -82 -88 -264q-18 -127 -18 -279zM557 1599l166 267h205l-262 -267h-109z" />
<glyph unicode="&#xd4;" horiz-adv-x="1351" d="M123 733q0 309 125 516q147 242 424 242q137 0 252 -66q160 -94 237 -286q68 -166 68 -383q0 -319 -125 -527q-147 -245 -434 -245q-133 0 -248 67q-156 94 -234 295q-66 170 -65 387zM360 1599l242 265h143l246 -265h-149l-170 154l-160 -154h-152zM373 733 q0 -227 49 -389q76 -250 252 -250q178 0 254 258q49 166 49 402q0 221 -51 383q-78 243 -252 243q-61 0 -107.5 -26.5t-87.5 -77.5q-61 -82 -88 -264q-18 -127 -18 -279z" />
<glyph unicode="&#xd5;" horiz-adv-x="1351" d="M123 733q0 309 125 516q147 242 424 242q137 0 252 -66q160 -94 237 -286q68 -166 68 -383q0 -319 -125 -527q-147 -245 -434 -245q-133 0 -248 67q-156 94 -234 295q-66 170 -65 387zM371 1583q0 106 44 175t138 69q29 0 57.5 -12.5t68.5 -37t74.5 -40t69.5 -15.5 q47 0 79 34t36 81h43q0 -111 -37 -172q-45 -74 -141 -74q-39 0 -72 12.5t-70.5 36t-62.5 35.5q-39 18 -70 19q-47 0 -71.5 -26t-38.5 -73l-4 -12h-43zM373 733q0 -227 49 -389q76 -250 252 -250q178 0 254 258q49 166 49 402q0 221 -51 383q-78 243 -252 243 q-61 0 -107.5 -26.5t-87.5 -77.5q-61 -82 -88 -264q-18 -127 -18 -279z" />
<glyph unicode="&#xd6;" horiz-adv-x="1351" d="M121 731q0 313 125 518q147 242 426 242q135 0 250 -66q158 -94 237 -286q70 -170 70 -383q0 -319 -125 -527q-149 -245 -436 -245q-135 0 -246 67q-158 94 -236 295q-66 168 -65 385zM342 1696q0 47 35 84t82 37q53 0 87 -34t34 -87t-35 -88t-88 -35q-45 0 -80 37 t-35 86zM373 733q0 -227 49 -389q76 -252 252 -252q178 0 254 260q49 168 49 406q0 223 -51 383q-78 241 -252 241q-57 0 -106.5 -28.5t-88.5 -77.5q-66 -86 -90 -264q-16 -115 -16 -279zM754 1692q0 51 34.5 88t83.5 37q47 0 84 -35t37 -84t-35 -86t-84 -37q-47 0 -83.5 35 t-36.5 82z" />
<glyph unicode="&#xd8;" horiz-adv-x="1339" d="M123 737q0 35 2 71t8 71q29 256 156 421q147 195 377 195q76 0 136 -20.5t159 -71.5l71 135l105 4l-111 -201q98 -117 148 -280q43 -143 43 -309q-1 -88 -9 -160q-29 -252 -157 -422q-147 -195 -377 -195q-139 0 -289 95l-59 -127l-109 -6l113 190q-115 106 -166 285 q-41 141 -41 325zM365 702q0 -111 9 -195.5t38 -223.5l86 153q33 55 65.5 126t65.5 138l264 553q-45 63 -101 97t-124 34q-90 0 -157 -58t-96.5 -144t-39.5 -216t-10 -264zM455 211q39 -59 94 -90t117 -31q63 0 118.5 32t94.5 87q53 74 73 207q14 90 15 223l4 141 q0 92 -9 185.5t-32 212.5q-45 -88 -139 -275q-63 -129 -127 -256q-53 -106 -123 -244z" />
<glyph unicode="&#xd9;" horiz-adv-x="1366" d="M104 1362q35 78 56.5 91t103.5 13l176 -2h56q-53 -129 -73 -278.5t-20 -331.5l-2 -104v-44.5t5 -48.5l8 -168q8 -63 15 -96t26 -86q35 -98 90 -147q68 -61 172 -62q211 0 293 285q51 176 51 459q0 43 -1 93t-1 109v35q0 78 -13.5 140.5t-39.5 95.5q-18 20 -42 30.5 t-59 18.5q12 43 27.5 64.5t31 28.5t44.5 7l67 2h125h12q-31 -96 -30 -182l6 -362q0 -236 -27 -400q-39 -244 -135 -385q-119 -174 -315 -174q-33 0 -74 6t-78 17q-219 61 -309 290q-68 172 -68 459q0 29 4 64t9 67q0 41 2 125t2 125v12v105q0 113 -95 129zM455 1868h200 l164 -269h-100z" />
<glyph unicode="&#xda;" horiz-adv-x="1366" d="M104 1362q35 78 56.5 91t103.5 13h176l56 -2q-53 -129 -73 -278.5t-20 -331.5l-2 -104v-44.5t5 -48.5l8 -168q8 -63 15 -96t26 -86q35 -98 90 -147q68 -61 172 -62q211 0 293 285q51 176 51 459q0 43 -1 93t-1 109v35q0 78 -13.5 140.5t-39.5 95.5q-18 20 -42 30.5 t-59 18.5q12 43 27.5 64.5t31 28.5t44.5 7l67 2h125h12q-31 -96 -30 -182l6 -364q0 -236 -27 -400q-39 -244 -135 -385q-117 -172 -315 -172q-33 0 -74 6t-78 17q-219 61 -309 290q-68 172 -68 459q0 29 4 64t9 67q0 41 2 125t2 125v12v105q0 113 -95 129zM563 1599l166 267 h205l-262 -267h-109z" />
<glyph unicode="&#xdb;" horiz-adv-x="1366" d="M104 1362q35 78 56.5 91t103.5 13h176l56 -2q-53 -129 -73 -278.5t-20 -331.5l-2 -104v-44.5t5 -48.5l8 -168q8 -63 15 -96t26 -86q35 -98 90 -147q68 -61 172 -62q211 0 293 285q51 176 51 459q0 43 -1 93t-1 109v35q0 78 -13.5 140.5t-39.5 95.5q-18 20 -42 30.5 t-59 18.5q12 43 27.5 64.5t31 28.5t44.5 7l67 2h125h12q-31 -96 -30 -182l6 -362q0 -236 -27 -400q-39 -244 -135 -385q-119 -174 -315 -174q-33 0 -74 6t-78 17q-219 61 -309 290q-68 172 -68 459q0 29 4 64t9 67q0 41 2 125t2 125v12v105q0 113 -95 129zM367 1599l241 265 h144l245 -265h-149l-170 154l-160 -154h-151z" />
<glyph unicode="&#xdc;" horiz-adv-x="1366" d="M104 1364q35 78 56.5 91t103.5 13h176h56q-53 -131 -73 -279.5t-20 -332.5l-2 -104v-44.5t5 -48.5l8 -165q6 -45 10 -68q12 -59 31 -117q35 -96 90 -145q70 -61 172 -62q211 0 293 285q51 176 51 457q0 43 -1 93t-1 110v34q0 78 -13.5 140.5t-39.5 97.5q-18 20 -42 30.5 t-59 18.5q12 43 26.5 62.5t31 27.5t45.5 8l67 2h125l12 2q-31 -96 -30 -184l6 -360q0 -238 -27 -402q-39 -244 -135 -385q-119 -174 -315 -174q-70 0 -152 21q-219 61 -309 293q-68 172 -68 458q0 29 4 64t9 67q0 41 2 125t2 125v15v102q0 113 -95 129zM403 1696q0 49 35 86 t84 37q51 0 86 -35t35 -86q0 -55 -36 -89t-89 -34q-45 0 -80 37t-35 84zM815 1694q0 51 34 87t85 36q49 0 84 -35t35 -86q0 -49 -35 -86t-84 -37t-84 34.5t-35 86.5z" />
<glyph unicode="&#xdf;" horiz-adv-x="1290" d="M39 1042l18 48q16 37 24.5 51t20.5 20l23 4h78q0 252 78 357q86 117 307 116q164 0 252 -79.5t88 -245.5q0 -106 -22.5 -154.5t-106.5 -89.5l-56 -33q-20 -12 -31.5 -27.5t-11.5 -37.5q0 -23 18.5 -50.5t72.5 -80.5l61 -62q106 -94 213 -186q76 -76 113 -141 q45 -80 45 -166q0 -145 -109 -230q-98 -75 -250 -75q-86 0 -183 24.5t-175 67.5l20 63l23 43q10 12 29.5 24.5t56.5 28.5q18 -63 78.5 -103t128.5 -40q76 0 135 51t59 131q0 47 -27.5 93.5t-76.5 99.5l-82 84l-68 61l-133 125q-53 51 -88 103q-43 66 -43 120q0 31 13.5 57.5 t36 48t53.5 44.5q39 29 57 41q39 31 53 80q8 31 8 92q0 92 -32 145q-41 68 -132 68q-117 0 -155 -76q-25 -49 -25 -172v-1284l-209 2q20 61 21 117v932l-74 6q-23 0 -46.5 -3t-47.5 -12z" />
<glyph unicode="&#xe0;" horiz-adv-x="1071" d="M94 385q0 178 99.5 301t265.5 123q72 0 131 -37q72 -45 145 -154q-10 55 -18 107.5t-8 62.5v74q0 133 -105 185q-72 35 -209 34q-55 0 -88 -2t-74 -12l-8 -2l21 61q10 29 23.5 41.5t44 19.5t102.5 7h41h43q215 0 301 -104.5t86 -335.5v-506v-55q0 -29 8 -52 q23 -55 98 -55h19l-21 27l-6 -25q-23 -55 -41 -73.5t-67 -18.5l-86 4q-31 0 -84 -14l4 37l26 120q-86 -88 -156.5 -123.5t-148.5 -35.5q-158 0 -252 118q-86 111 -86 283zM291 399q0 -115 45 -194q57 -102 170 -103q104 0 166 97q25 41 33 87t8 111q0 121 -39 189 q-51 90 -166 90q-111 0 -168 -90q-49 -76 -49 -187zM307 1581h201l164 -268h-101z" />
<glyph unicode="&#xe1;" horiz-adv-x="1071" d="M94 385q0 178 99.5 301t265.5 123q72 0 131 -37q72 -45 145 -154q-10 55 -18 107.5t-8 62.5v74q0 133 -105 185q-72 35 -209 34q-55 0 -88 -2t-74 -12l-8 -2l21 61q10 29 23.5 41.5t44 19.5t102.5 7h41h43q215 0 301 -104.5t86 -335.5v-506v-55q0 -29 8 -52 q23 -55 98 -55h19l-21 27l-6 -25q-23 -55 -41 -73.5t-67 -18.5l-86 4q-31 0 -84 -14l4 37l26 120q-86 -88 -156.5 -123.5t-148.5 -35.5q-158 0 -252 118q-86 111 -86 283zM291 399q0 -115 45 -194q57 -102 170 -103q104 0 166 97q25 41 33 87t8 111q0 121 -39 189 q-51 90 -166 90q-111 0 -168 -90q-49 -76 -49 -187zM416 1313l166 266h204l-262 -266h-108z" />
<glyph unicode="&#xe2;" horiz-adv-x="1071" d="M94 385q0 178 99.5 301t265.5 123q72 0 131 -37q72 -45 145 -154q-10 55 -18 107.5t-8 62.5v74q0 133 -105 185q-72 35 -207 34q-55 0 -89 -2t-75 -12l-8 -2l21 61q10 29 23.5 41.5t44 19.5t102.5 7h41h43q215 0 301 -104.5t86 -335.5v-506v-55q0 -29 8 -52 q23 -55 98 -55h19l-21 27l-6 -25q-23 -55 -41 -73.5t-67 -18.5l-86 4q-31 0 -84 -14l4 37l26 120q-86 -88 -156.5 -123.5t-148.5 -35.5q-158 0 -252 118q-86 111 -86 283zM219 1313l242 264h143l246 -264h-150l-170 153l-159 -153h-152zM291 399q0 -115 45 -194 q57 -102 170 -103q104 0 166 97q25 41 33 87t8 111q0 121 -39 189q-51 90 -166 90q-111 0 -168 -90q-49 -76 -49 -187z" />
<glyph unicode="&#xe3;" horiz-adv-x="1071" d="M94 385q0 178 99.5 301t265.5 123q72 0 131 -37q72 -45 145 -154q-10 55 -18 107.5t-8 62.5v74q0 133 -105 185q-72 35 -207 34q-49 0 -86 -2t-78 -10l-8 -4l21 63q10 31 23.5 41.5t44 17.5t102.5 7h41h43q215 0 301 -104.5t86 -335.5v-506v-55q0 -29 8 -52 q23 -55 98 -55h19l-21 27l-6 -25q-23 -55 -41 -73.5t-67 -18.5l-86 4q-31 0 -84 -14l4 37l26 120q-86 -88 -156.5 -123.5t-148.5 -35.5q-158 0 -252 118q-86 111 -86 283zM229 1296q0 106 44 175t139 69q29 0 57.5 -12t68.5 -37t74.5 -40t69.5 -15q47 0 79 33.5t36 80.5 l43 2q0 -113 -37 -174q-45 -74 -141 -73q-37 0 -71 12t-72 34.5t-62 34.5q-39 18 -70 19q-45 0 -70.5 -25.5t-40.5 -70.5l-4 -13h-43zM291 399q0 -115 45 -194q57 -102 170 -103q104 0 166 97q25 41 33 87t8 111q0 121 -39 189q-51 90 -166 90q-111 0 -168 -90 q-49 -76 -49 -187z" />
<glyph unicode="&#xe4;" horiz-adv-x="1071" d="M92 385q0 178 99.5 301t265.5 123q72 0 131 -37q72 -45 145 -154q-10 55 -18 107.5t-8 62.5v74q0 133 -105 185q-72 35 -207 34q-49 0 -86 -2t-78 -10l-8 -4l21 61q10 29 23.5 41.5t44 19.5t102.5 7h41h43q215 0 301 -104.5t86 -335.5v-506v-55q0 -29 8 -52 q23 -55 98 -55h19l-21 27l-6 -25q-23 -55 -41 -73.5t-68 -18.5l-86 4q-30 0 -83 -14l4 37l26 120q-86 -88 -156.5 -123.5t-148.5 -35.5q-158 0 -252 118q-86 111 -86 283zM203 1444q0 49 34.5 86t84.5 37q53 0 86.5 -34t33.5 -87q0 -49 -34.5 -86t-85.5 -37q-49 0 -84 35 t-35 86zM289 399q0 -115 45 -194q57 -102 170 -103q104 0 166 97q25 41 33 87t8 111q0 121 -39 189q-51 90 -166 90q-111 0 -168 -90q-49 -76 -49 -187zM614 1442q0 53 34 89t85 36q49 0 84 -35t35 -86q0 -49 -35 -86t-84 -37t-84 35t-35 84z" />
<glyph unicode="&#xe5;" horiz-adv-x="1071" d="M94 393q0 172 100.5 294t264.5 122q76 0 131 -35q68 -43 139 -147q-12 86 -16 144t-4 91q0 135 -115 185q-76 33 -217 32q-78 0 -152 -12l21 57q12 33 24.5 43.5t43 17.5t102.5 7h43q27 0 60.5 -3t51.5 -5q182 -31 252 -133q63 -94 64 -299v-506v-56q0 -31 10 -51 q23 -53 102 -53h13l-21 27l-6 -25q-23 -55 -41 -73.5t-67 -18.5l-86 4q-31 0 -84 -14l4 37l22 108q-31 -25 -46 -38t-19 -19q-100 -90 -234 -90q-158 0 -249 118.5t-91 290.5zM291 391q0 -109 45 -188q57 -102 166 -103q41 0 74.5 15.5t66.5 46.5q41 41 55.5 98t14.5 127 q0 125 -37 193q-51 94 -172 94q-109 0 -166 -94q-47 -78 -47 -189zM350 1483q0 80 53.5 133t133.5 53q76 0 131 -53t55 -131q0 -80 -54 -134.5t-132 -54.5t-132.5 54.5t-54.5 132.5zM422 1481q0 -49 35 -86t84 -37q53 0 87 36t34 89q0 49 -35 86t-86 37q-49 0 -84 -37 t-35 -88z" />
<glyph unicode="&#xe6;" horiz-adv-x="1597" d="M94 397q0 170 99.5 295t255.5 125q70 0 134 -40t132 -140l-21 227q0 125 -90 176q-68 39 -198 39q-55 0 -108.5 -6t-86.5 -10l20 63q8 37 38 47.5t54.5 13.5t43.5 5l94 6q121 0 201 -37q100 -45 157 -155q61 98 150.5 149t185.5 51q90 0 163 -45t128 -129 q16 -29 36.5 -58.5t43.5 -45.5l-4 -25q-25 -133 -64 -182t-162 -109l-391 -190q20 -131 116.5 -221t215.5 -90q37 0 76 7t82 19l37 8l32 7q20 0 39 -27q12 -18 23 -49q-68 -43 -163 -69.5t-175 -26.5q-102 0 -187.5 40.5t-164.5 124.5l-13 15l-30 45l-31 -55 q-70 -90 -139.5 -131.5t-171.5 -41.5q-170 0 -263.5 119t-93.5 301zM285 391q0 -111 49 -190q59 -98 168 -99q109 0 162 103q43 82 43 194q0 109 -43 185q-56 96 -160 96q-111 0 -170 -96q-49 -80 -49 -193zM866 653q0 -18 2 -41.5t9 -66.5l217 96q100 45 151 90 q84 74 84 168q0 74 -52 128t-126 54q-135 0 -217 -155q-68 -129 -68 -273z" />
<glyph unicode="&#xe7;" horiz-adv-x="946" d="M104 555q0 256 117 436q133 205 367 205q86 0 160 -29q37 -14 67 -32l78 -43l10 -7q-10 -27 -19.5 -43t-21.5 -36l-24 -39q-33 -47 -90 -47q-23 0 -35 4l2 22q0 61 -39 98t-96 37q-139 0 -209 -170q-51 -127 -52 -290q0 -193 46 -318q72 -197 237 -197q39 0 66.5 8.5 t64.5 26.5l43 23q16 8 31 8q18 0 35.5 -11t36.5 -34l-17 -14q-70 -68 -138.5 -99.5t-166.5 -31.5l-12 -144h35h14q63 -8 100 -41t37 -94q0 -78 -53 -123t-133 -45q-63 0 -125 24.5t-121 69.5q18 18 23 21q8 4 20 4q10 0 25.5 -6t37 -16.5t46 -17.5t49.5 -7q43 0 71 20 q37 27 37 74q0 51 -38 75.5t-93 30.5l27 170q-190 35 -301 216q-98 160 -99 362z" />
<glyph unicode="&#xe8;" horiz-adv-x="1040" d="M109 575q0 248 120 422q135 193 363 193q102 0 182 -62q63 -49 133 -155q16 -25 25.5 -37t25.5 -29l-16 -61q-18 -76 -33 -107q-31 -63 -123 -108l-116 -60l-336 -155q47 -141 129 -223q96 -94 223 -95q37 0 67.5 6.5t69.5 20.5q16 6 36 14t32 8q18 0 41 -30l18 -47 q-166 -94 -344 -95q-238 0 -373 181q-125 166 -124 419zM293 1581h201l163 -268h-100zM309 602.5q0 -18.5 6 -63.5l254 114l25 13q47 31 57 36q31 20 54.5 47t39 61t15.5 75q0 76 -51 127t-125 51l-23 -2q-131 -18 -199 -162q-53 -115 -53 -258v-38.5z" />
<glyph unicode="&#xe9;" horiz-adv-x="1040" d="M109 575q0 248 120 422q135 193 363 193q102 0 182 -62q63 -49 133 -155q16 -25 25.5 -37t25.5 -29l-16 -61q-18 -76 -33 -107q-31 -63 -123 -108l-116 -60l-336 -155q47 -141 129 -223q96 -94 223 -95q37 0 67.5 6.5t69.5 20.5q16 6 36 14t32 8q18 0 41 -30l18 -47 q-166 -94 -344 -95q-238 0 -373 181q-125 166 -124 419zM309 602.5q0 -18.5 6 -63.5l254 114l25 13q47 31 57 36q31 20 54.5 47t39 61t15.5 75q0 76 -51 127t-125 51l-23 -2q-131 -18 -199 -162q-53 -115 -53 -258v-38.5zM401 1313l166 266h205l-262 -266h-109z" />
<glyph unicode="&#xea;" horiz-adv-x="1040" d="M109 575q0 248 120 422q135 193 363 193q102 0 182 -62q63 -49 133 -155q16 -27 23 -33q12 -14 28 -31l-16 -63q-18 -76 -33 -107q-31 -63 -123 -108l-116 -60l-336 -155q47 -141 129 -223q96 -94 223 -95q37 0 67.5 6.5t69.5 20.5q16 6 36 14t32 8q18 0 41 -30l18 -47 q-166 -94 -344 -95q-238 0 -373 181q-125 166 -124 419zM205 1313l241 264h144l246 -264h-150l-170 153l-160 -153h-151zM309 602.5q0 -18.5 6 -63.5l254 114l25 13q47 31 57 36q31 20 54.5 47t39 61t15.5 75q0 76 -51 127t-125 51l-23 -2q-131 -18 -199 -162 q-53 -115 -53 -258v-38.5z" />
<glyph unicode="&#xeb;" horiz-adv-x="1040" d="M106 573q0 248 121 422q135 193 363 193q102 0 182 -62q63 -49 133 -155q16 -27 23 -33q12 -14 28 -31l-16 -63q-25 -96 -47 -131q-31 -45 -109 -84l-116 -60l-336 -155q47 -141 129 -224q96 -94 223 -94q37 0 67.5 6.5t69.5 20.5q16 6 36 14t32 8q18 0 41 -30l18 -47 q-166 -94 -344 -95q-238 0 -373 181q-125 166 -125 419zM195 1440q0 47 34.5 84t83.5 37q53 0 87 -34t34 -87q0 -49 -35 -86t-86 -37t-84.5 36t-33.5 87zM307 602.5q0 -18.5 6 -63.5l254 114l25 13q47 31 57 36q31 20 54.5 47t39 61t15.5 75q0 76 -51 127t-125 51l-23 -2 q-131 -18 -199 -162q-53 -115 -53 -258v-38.5zM606 1438q0 53 33 88t86 35q49 0 85 -36t36 -85t-35 -86t-84 -37q-47 0 -84 34.5t-37 86.5z" />
<glyph unicode="&#xec;" horiz-adv-x="544" d="M45 1581h201l164 -268h-101zM72 1071l6 10l18 35l15 33l8 14q6 6 43 6h231q-14 -47 -21 -102t-7 -115v-34v-580l2 -111q0 -119 108 -131q-20 -59 -37.5 -78.5t-64.5 -19.5h-101l-116 2q18 55 23 109.5t5 132.5v624v15v77q0 35 -10 56q-20 41 -102 57z" />
<glyph unicode="&#xed;" horiz-adv-x="544" d="M72 1073l6 8l18 35l15 33l8 14q6 6 43 6h231q-14 -47 -21 -102t-7 -115v-34v-580l2 -111q0 -119 108 -131q-20 -59 -37.5 -78.5t-64.5 -19.5h-101l-116 2q18 55 23 109.5t5 132.5v624v15v77q0 35 -10 56q-20 41 -102 59zM154 1313l165 266h205l-262 -266h-108z" />
<glyph unicode="&#xee;" horiz-adv-x="544" d="M-43 1313l242 264h143l246 -264h-150l-170 153l-159 -153h-152zM72 1073l6 8l18 35l15 33l8 14q6 6 43 6h231q-14 -47 -21 -102t-7 -115v-34v-580l2 -111q0 -119 108 -131q-20 -59 -37.5 -78.5t-64.5 -19.5h-101l-116 2q18 55 23 109.5t5 132.5v624v15v77q0 35 -10 56 q-20 41 -102 59z" />
<glyph unicode="&#xef;" horiz-adv-x="544" d="M-53 1440q0 47 34.5 84t84.5 37q53 0 86.5 -34t33.5 -87q0 -49 -34.5 -86t-85.5 -37t-85 36t-34 87zM70 1071l6 8l18 35l15 33l8 14q6 6 43 6h28h25h78t78 2h22q-14 -49 -21.5 -104t-7.5 -115v-35v-579l3 -111q0 -119 108 -131q-20 -59 -37.5 -78.5t-64.5 -19.5h-101 l-116 2q18 55 23 109.5t5 132.5v624v15v77q0 35 -10 56q-20 41 -102 59zM358 1438q0 53 33 88t86 35q49 0 85 -36t36 -85t-35 -86t-84 -37q-47 0 -84 34.5t-37 86.5z" />
<glyph unicode="&#xf1;" horiz-adv-x="1153" d="M88 1075l13.5 31.5t15.5 32.5q23 35 59 35l74 -3q66 0 117 27v-137q86 82 156.5 114.5t156.5 32.5q152 0 225 -121q61 -102 62 -278v-522q0 -78 16 -115q24 -56 92 -70q-16 -59 -38.5 -81.5t-53.5 -22.5h-18l-215 2q23 68 29.5 142.5t6.5 166.5v473q0 166 -59 236 q-49 57 -143 57q-129 0 -181 -123q-35 -84 -34 -239v-404v-8l2 -68q0 -14 2 -28q2 -10 10 -29q20 -49 92 -74q-4 -16 -8 -30.5t-16 -34.5q-23 -37 -60 -37h-239q35 98 34 182v719v55q0 29 -8 48q-18 49 -80 67zM270 1296q0 106 44 175t139 69q29 0 57.5 -12t68 -37t74.5 -40 t70 -15q47 0 79 33.5t36 80.5l43 2q0 -113 -37 -174q-45 -74 -142 -73q-37 0 -70.5 12t-71.5 34.5t-62 34.5q-39 18 -70 19q-45 0 -70.5 -25.5t-40.5 -70.5l-4 -13h-43z" />
<glyph unicode="&#xf2;" d="M109 590q0 262 108 424q125 186 361 186q229 0 352 -190q109 -168 108 -422q0 -262 -108 -424q-125 -187 -361 -187q-229 0 -352 191q-109 168 -108 422zM315 571q0 -229 82 -360q68 -106 176 -107q143 0 211 181q49 131 50 305q0 180 -46 303q-66 182 -213 182 q-150 0 -215 -188q-45 -129 -45 -316zM346 1581h201l164 -268h-101z" />
<glyph unicode="&#xf3;" d="M109 590q0 262 108 424q125 186 361 186q229 0 352 -190q109 -168 108 -422q0 -262 -108 -424q-125 -187 -361 -187q-229 0 -352 191q-109 168 -108 422zM315 571q0 -229 82 -360q68 -106 176 -107q143 0 211 181q49 131 50 305q0 180 -46 303q-66 182 -213 182 q-150 0 -215 -188q-45 -129 -45 -316zM455 1313l166 266h204l-262 -266h-108z" />
<glyph unicode="&#xf4;" d="M109 590q0 262 108 424q125 186 361 186q229 0 352 -190q109 -168 108 -422q0 -262 -108 -424q-125 -187 -361 -187q-229 0 -352 191q-109 168 -108 422zM258 1313l242 264h143l246 -264h-150l-170 153l-159 -153h-152zM315 571q0 -229 82 -360q68 -106 176 -107 q143 0 211 181q49 131 50 305q0 180 -46 303q-66 182 -213 182q-150 0 -215 -188q-45 -129 -45 -316z" />
<glyph unicode="&#xf5;" d="M109 590q0 262 108 424q125 186 361 186q229 0 352 -190q109 -168 108 -422q0 -262 -108 -424q-125 -187 -361 -187q-229 0 -352 191q-109 168 -108 422zM268 1296q0 106 44 175t139 69q29 0 57.5 -12t68 -37t74.5 -40t70 -15q47 0 78.5 33.5t36.5 80.5l43 2 q0 -113 -37 -174q-45 -74 -142 -73q-37 0 -70.5 12t-71.5 34.5t-62 34.5q-39 18 -70 19q-45 0 -70.5 -25.5t-40.5 -70.5l-4 -13h-43zM315 571q0 -229 82 -360q68 -106 176 -107q143 0 211 181q49 131 50 305q0 180 -46 303q-66 182 -213 182q-150 0 -215 -188 q-45 -129 -45 -316z" />
<glyph unicode="&#xf6;" d="M109 588q0 203 63 344q76 170 234 233q82 35 165 35q82 0 168 -33q158 -66 234 -233q66 -145 65 -342q0 -203 -63 -344q-76 -170 -236 -236q-80 -35 -164 -35q-82 0 -167 33q-158 66 -234 234q-66 145 -65 344zM248 1446q0 47 34.5 84t84.5 37q53 0 86.5 -36t33.5 -89 q0 -49 -34.5 -84t-83.5 -35q-51 0 -86 35t-35 88zM317 590q0 -176 48 -303q68 -182 210 -183q143 0 211 181q49 131 50 305q0 176 -48 303q-68 182 -213 182q-143 0 -210 -182q-47 -127 -48 -303zM659 1442q0 53 34 89t85 36q49 0 83 -36t34 -87t-35 -86t-84 -35 q-47 0 -82 35t-35 84z" />
<glyph unicode="&#xf8;" horiz-adv-x="1138" d="M102 612q0 262 109 422q123 182 362 183q66 0 120.5 -17.5t117.5 -60.5l63 137l113 10l-110 -190q92 -104 127 -238q29 -106 28 -268q0 -262 -108 -424q-125 -186 -363 -186q-53 0 -109.5 17t-117.5 54l-62 -119l-106 2l102 179q-96 63 -137 225q-29 115 -29 274z M289 569q0 -78 13 -148.5t50 -166.5q37 59 52.5 82.5t25.5 48.5q164 315 328 631q-39 41 -91.5 62.5t-101.5 21.5t-98 -23q-98 -47 -141 -166q-31 -88 -31 -213zM391 180q45 -41 90 -58.5t97 -17.5q154 0 219 185q45 125 45 317q0 78 -10 162t-35 199q-109 -201 -215.5 -403 t-190.5 -384z" />
<glyph unicode="&#xf9;" d="M57 1069q35 70 64 85t117 15l79 2l78 3q-20 -70 -25 -162t-5 -119v-567q0 -98 50 -166t148 -68q53 0 101 29q76 41 100 139q14 57 14 170v459q0 90 -17.5 121.5t-86.5 52.5q4 16 7 30.5t15 36.5q20 37 58 37h45l190 4q-25 -125 -24 -286v-586q0 -84 14 -123 q24 -66 90 -76q-8 -18 -15 -37.5t-23.5 -39t-53.5 -19.5h-41t-41 2q-27 0 -57.5 -6t-49.5 -8l5 155q-74 -98 -152 -141t-164 -43q-150 0 -223 111q-66 96 -66 264q0 145 -2 291.5t-4 292.5q0 72 -26.5 106.5t-98.5 40.5zM346 1581h201l164 -268h-101z" />
<glyph unicode="&#xfa;" d="M57 1069q35 70 64 85t117 15l79 2l78 3q-20 -70 -25 -162t-5 -119v-567q0 -98 50 -166t148 -68q53 0 101 29q76 41 100 139q14 57 14 170v459q0 90 -17.5 121.5t-86.5 52.5q4 16 7 30.5t15 36.5q20 37 58 37h45l190 4q-25 -125 -24 -286v-586q0 -84 14 -123 q24 -66 90 -76q-8 -18 -15 -37.5t-23.5 -39t-53.5 -19.5h-41t-41 2q-27 0 -57.5 -6t-49.5 -8l5 155q-74 -98 -152 -141t-164 -43q-150 0 -223 111q-66 96 -66 264q0 145 -2 291.5t-4 292.5q0 72 -26.5 106.5t-98.5 40.5zM455 1313l166 266h204l-262 -266h-108z" />
<glyph unicode="&#xfb;" d="M57 1069q35 70 64 85t117 15l79 2l78 3q-20 -70 -25 -162t-5 -119v-567q0 -98 50 -166t148 -68q53 0 101 29q76 41 100 139q14 57 14 170v459q0 90 -17.5 121.5t-86.5 52.5q4 16 7 30.5t15 36.5q20 37 58 37h45l190 4q-25 -125 -24 -286v-586q0 -84 14 -123 q24 -66 90 -76q-8 -18 -15 -37.5t-23.5 -39t-53.5 -19.5h-41t-41 2q-27 0 -57.5 -6t-49.5 -8l5 155q-74 -98 -152 -141t-164 -43q-150 0 -223 111q-66 96 -66 264q0 145 -2 291.5t-4 292.5q0 72 -26.5 106.5t-98.5 40.5zM258 1313l242 264h143l246 -264h-150l-170 153 l-159 -153h-152z" />
<glyph unicode="&#xfc;" d="M57 1069q35 70 64 85t117 15l79 2l78 3q-20 -70 -25 -162t-5 -119v-567q0 -98 50 -166t148 -68q51 0 101 27q76 41 100 141q14 57 14 170v455l-2 67q-4 31 -14 49q-20 45 -88 62q4 16 7 30.5t15 36.5q20 37 58 37h45l190 4q-25 -125 -24 -286v-586q0 -84 14 -123 q24 -66 90 -76q-8 -18 -15 -37.5t-23.5 -39t-53.5 -19.5h-41t-41 2q-27 0 -57.5 -6t-49.5 -8l5 155q-74 -98 -152 -141t-164 -43q-150 0 -223 111q-66 96 -66 264q0 96 -2 291.5t-2 292.5q0 74 -24 106q-31 41 -103 41zM219 1450q0 49 35 86t84 37q51 0 85 -34t34 -85 t-35 -88t-84 -37t-84 35t-35 86zM629 1448q0 51 34.5 88t84.5 37q49 0 83.5 -35t34.5 -86q0 -49 -34.5 -86t-83.5 -37t-84 35t-35 84z" />
<glyph unicode="&#xfd;" horiz-adv-x="0" />
<glyph unicode="&#xff;" horiz-adv-x="1026" d="M-80 -403l19 41q6 12 12 22t18.5 23.5t26.5 11.5q27 0 43 -4t24 -4q18 -2 35 -5.5t41 -3.5q70 0 119 30t84 81q12 16 29.5 52t25.5 55l47 116l-305 899l-22 62q-16 43 -29 57q-20 23 -61 31q6 23 12 31l12 28q12 33 28.5 42t53.5 9h49l111 3q-6 -12 -8 -28t-4 -30 q0 -51 18 -100l170 -514q10 -27 25 -74q27 -84 53 -203q23 104 45 172q2 6 37 105l135 375q8 25 17.5 50t9.5 50q0 53 -44.5 75.5t-103.5 22.5l4 17q18 53 44 66t93 13q55 0 111.5 -1t112.5 -1l-463 -1226q-70 -184 -142 -269q-100 -117 -253 -116q-49 0 -116 10t-114 29z M186 1440q0 47 35 84t84 37q51 0 86 -33t35 -86q0 -49 -35 -86t-86 -37q-49 0 -84 35t-35 86zM598 1438q0 53 33 88t86 35q47 0 84 -35t37 -84t-35 -86t-84 -37q-47 0 -84 35t-37 84z" />
<glyph unicode="&#x152;" horiz-adv-x="1775" d="M123 735q0 326 127 529q150 240 440 239q49 0 151.5 -14t153.5 -14h56h630l-2 -9q-12 -43 -18 -55q-14 -33 -31.5 -49t-44.5 -29l-67 -35l-41 -18v10q0 27 -17.5 41.5t-36 19.5t-42 5t-38.5 2l-98 2l-12 -2l-57 2q-37 0 -57.5 -19.5t-24.5 -41t-6.5 -45t-2.5 -42.5v-26 v-139.5t2 -147.5q53 0 127 -5t84 -5h25q70 0 100.5 3t79.5 13l-12 -26q-27 -70 -49.5 -90.5t-85.5 -20.5q-39 0 -127 2t-144 2v-442q0 -31 1 -65t11.5 -63.5t36 -48t70.5 -18.5l111 -4h186h25q63 0 97 3t77 16l-12 -35q-33 -84 -55.5 -99.5t-110.5 -15.5h-488h-51.5t-54.5 2 q-43 0 -80 -4t-80 -8t-72 -4q-293 0 -442 227q-131 199 -131 522zM373 776q0 -256 45 -420q74 -268 254 -268q123 0 192 109v1091q-49 53 -82 74q-45 29 -104 29q-174 0 -252 -236q-53 -160 -53 -379z" />
<glyph unicode="&#x153;" horiz-adv-x="1775" d="M109 598q0 256 118 422q131 182 367 182q109 0 194 -49q72 -41 175 -145l26 32l15 13q78 82 152.5 118.5t178.5 36.5q92 0 173 -47t126 -131q31 -55 33 -59q20 -37 41 -56l-25 -92q-35 -96 -75 -135q-33 -33 -140 -84l-43 -20l-358 -156q37 -137 127 -227q98 -98 221 -99 q18 0 39 1t43 8l62 14q37 10 57 10q16 0 36.5 -20.5t33.5 -46.5q-82 -41 -171.5 -67t-171.5 -26q-195 0 -335 164l-21 19l-31 45q-72 -125 -156.5 -179.5t-205.5 -54.5q-254 0 -377 185q-109 162 -108 444zM305 549q0 -109 15.5 -189.5t62.5 -150.5q35 -49 84 -79t108 -30 q45 0 84 15.5t76 48.5q53 47 85 158.5t32 285.5q0 178 -43 293q-65 174 -221 174q-170 0 -238 -190q-45 -125 -45 -336zM1038 647l9 -94l253 113q121 51 168 112q41 53 41 125q0 80 -52 128t-130 48q-143 0 -223 -155q-66 -127 -66 -277z" />
<glyph unicode="&#x178;" horiz-adv-x="1142" d="M0 1368l29 62q20 37 59 36l76 2l135 -2q2 -27 7 -41t34 -71l252 -514q10 -20 18 -38t33 -83l217 489q6 14 12.5 31.5t6.5 36.5q0 43 -28 63.5t-67 24.5q23 72 45.5 88t98.5 16l178 -4q-25 -45 -37 -65q-23 -41 -35 -68q-72 -170 -209 -477q-86 -195 -129 -291v-274 q0 -90 15 -125q25 -59 98 -60l-18 -51l-17 -33q-8 -8 -25.5 -14t-48.5 -6h-200l-56 2q14 47 22.5 114.5t8.5 116.5v342l-235 490l-37 68q-20 37 -40 74.5t-44 72.5q-53 72 -119 88zM246 1726q0 47 34.5 84t84.5 37q53 0 86.5 -33.5t33.5 -87.5q0 -49 -34.5 -85.5 t-85.5 -36.5q-49 0 -84 36.5t-35 85.5zM657 1724q0 53 33 88t86 35q47 0 84 -34.5t37 -83.5t-35 -86t-84 -37q-47 0 -84 34.5t-37 83.5z" />
<glyph unicode="&#x2c6;" horiz-adv-x="724" d="M47 1278l242 299h143l246 -299h-150l-170 174l-159 -174h-152z" />
<glyph unicode="&#x2dc;" horiz-adv-x="651" d="M20 1262q0 121 44.5 199.5t138.5 78.5q29 0 61 -16q20 -10 63.5 -40t76 -47.5t69.5 -17.5q47 0 79 39t36 92h43q0 -127 -37 -196q-45 -84 -141 -84q-39 0 -71 14t-72 42t-62 40q-37 20 -70 20q-47 0 -71.5 -29.5t-38.5 -82.5l-5 -12h-43z" />
<glyph unicode="&#x2000;" horiz-adv-x="934" />
<glyph unicode="&#x2001;" horiz-adv-x="1868" />
<glyph unicode="&#x2002;" horiz-adv-x="934" />
<glyph unicode="&#x2003;" horiz-adv-x="1868" />
<glyph unicode="&#x2004;" horiz-adv-x="622" />
<glyph unicode="&#x2005;" horiz-adv-x="467" />
<glyph unicode="&#x2006;" horiz-adv-x="311" />
<glyph unicode="&#x2007;" horiz-adv-x="311" />
<glyph unicode="&#x2008;" horiz-adv-x="233" />
<glyph unicode="&#x2009;" horiz-adv-x="373" />
<glyph unicode="&#x200a;" horiz-adv-x="103" />
<glyph unicode="&#x2010;" horiz-adv-x="614" d="M94 537l15 49l16 53l12 31q14 20 60 20q49 0 124.5 -5t88.5 -5q35 0 69 6q35 10 49 12q-16 -72 -34 -104q-29 -49 -80 -49q-16 0 -57.5 4t-63.5 4h-78q-47 0 -65.5 -2t-55.5 -14z" />
<glyph unicode="&#x2011;" horiz-adv-x="614" d="M94 537l15 49l16 53l12 31q14 20 60 20q49 0 124.5 -5t88.5 -5q35 0 69 6q35 10 49 12q-16 -72 -34 -104q-29 -49 -80 -49q-16 0 -57.5 4t-63.5 4h-78q-47 0 -65.5 -2t-55.5 -14z" />
<glyph unicode="&#x2012;" horiz-adv-x="614" d="M94 537l15 49l16 53l12 31q14 20 60 20q49 0 124.5 -5t88.5 -5q35 0 69 6q35 10 49 12q-16 -72 -34 -104q-29 -49 -80 -49q-16 0 -57.5 4t-63.5 4h-78q-47 0 -65.5 -2t-55.5 -14z" />
<glyph unicode="&#x2013;" horiz-adv-x="1083" d="M82 395v168h919v-168h-919z" />
<glyph unicode="&#x2014;" horiz-adv-x="1005" d="M70 537v229h866v-229h-866z" />
<glyph unicode="&#x2018;" horiz-adv-x="419" d="M86 1030q41 184 76 270q68 168 162 205q-29 -69 -29 -155q0 -57 10 -125l12 -54l5 -49q0 -23 -16.5 -50.5t-43 -35.5t-78.5 -8z" />
<glyph unicode="&#x2019;" horiz-adv-x="419" d="M98 997q14 33 20.5 75t6.5 85q0 37 -2 57.5t-8 63.5l-11 53l-6 47q0 18 15 52q14 25 37.5 35t85.5 10h47t53 -5l-31 -118q-33 -123 -72 -205q-59 -123 -135 -150z" />
<glyph unicode="&#x201a;" horiz-adv-x="419" d="M98 150q0 20 15.5 49.5t42 38t82.5 8.5l98 -2l-14 -56q-39 -162 -74 -241q-61 -147 -150 -180q14 33 20.5 74.5t6.5 84.5q0 37 -2 57.5t-8 63.5l-13 53z" />
<glyph unicode="&#x201c;" horiz-adv-x="774" d="M84 1018l12 55q43 168 76 242q63 147 152 180q-29 -70 -29 -156q0 -57 10 -125l12 -53l5 -49q0 -25 -17 -47q-12 -25 -40.5 -36t-57.5 -11h-43h-80zM438 1018l15 53q43 166 75 242q63 147 150 180q-29 -70 -29 -154q0 -31 2 -63.5t8 -63.5l9 -55l8 -49q0 -18 -14.5 -43 t-43 -36t-57.5 -11h-43h-80z" />
<glyph unicode="&#x201d;" horiz-adv-x="774" d="M98 997q14 33 20.5 75t6.5 85q0 37 -2 57.5t-8 63.5l-13 53l-4 49q0 23 17.5 52.5t43 36t77.5 6.5h47t53 -5l-31 -118q-33 -125 -72 -205q-59 -119 -135 -150zM451 995q29 72 28 162q0 53 -10 119l-12 53l-4 49q0 23 17 52.5t43 36t77 6.5h47t53 -5l-31 -118 q-33 -123 -71 -203q-59 -123 -137 -152z" />
<glyph unicode="&#x201e;" horiz-adv-x="774" d="M98 150q0 20 15.5 49.5t42 38t82.5 8.5l98 -2l-14 -56q-39 -162 -74 -241q-61 -147 -150 -180q14 33 20.5 74.5t6.5 84.5q0 37 -2 57.5t-8 63.5l-13 53zM451 -233q29 72 28 161q0 53 -10 119l-12 53l-4 50q0 20 15 49.5t42 38t82 8.5h98q-39 -186 -76 -277 q-67 -167 -163 -202z" />
<glyph unicode="&#x2022;" horiz-adv-x="737" d="M109 737q0 117 75.5 199t184.5 82t184.5 -82t75.5 -199t-75.5 -198.5t-184.5 -81.5t-184.5 82t-75.5 198z" />
<glyph unicode="&#x2026;" horiz-adv-x="1372" d="M102 125q0 61 37 104t90 43t90 -43t37 -104t-37 -104.5t-90 -43.5t-90 43t-37 105zM559 125q0 61 37 104t90 43t90 -43t37 -104t-37 -104.5t-90 -43.5t-90 43t-37 105zM1016 125q0 61 37 104t90 43t90 -43t37 -104t-37 -104.5t-90 -43.5t-90 43t-37 105z" />
<glyph unicode="&#x202f;" horiz-adv-x="373" />
<glyph unicode="&#x2039;" horiz-adv-x="622" d="M84 569l264 357l144 -2l-240 -357l272 -428h-157z" />
<glyph unicode="&#x203a;" horiz-adv-x="622" d="M98 141l271 426l-242 359h143l269 -359l-287 -428z" />
<glyph unicode="&#x205f;" horiz-adv-x="467" />
<glyph unicode="&#x2122;" horiz-adv-x="1787" d="M88 1276l12 199h637l13 -197l-17 -2l-4 31q-14 72 -49 95t-111 23h-73v-604q0 -35 13 -48t48 -17l25 -2v-17h-328v17l25 2q27 2 38 8q27 14 27 57v604l-74 -2q-76 0 -106.5 -20.5t-52.5 -91.5l-7 -35h-16zM754 737v17l24 2q27 2 39 8q27 14 27 57l-2 572q0 23 -7.5 38 t-25.5 21l-6 2l-47 6v15h239l234 -527l235 527h236v-15l-45 -4l-8 -4q-20 -8 -26.5 -21.5t-6.5 -37.5v-570q0 -23 7 -39t26 -24q51 -6 53 -6v-17h-328v17l25 2q27 2 39 8q27 14 26 57v518l-266 -602h-41l-262 598v-512q0 -23 7 -39t26 -24q51 -6 53 -6v-17h-225z" />
<glyph unicode="&#xe000;" horiz-adv-x="1177" d="M0 0v1178h1178v-1178h-1178z" />
</font>
</defs>
</svg>
